STARTFONT 2.1
COMMENT
COMMENT Converted from OpenType font "Q:\font stuff\winfont\TeutonWeiss.otf" by "otf2bdf 3.0".
COMMENT
FONT -FreeType-Teuton Weiss-Medium-R-Normal--50-500-72-72-P-160-ISO10646-1
SIZE 50 72 72
FONTBOUNDINGBOX 43 53 -3 -11
STARTPROPERTIES 19
FOUNDRY "FreeType"
FAMILY_NAME "Teuton Weiss"
WEIGHT_NAME "Medium"
SLANT "R"
SETWIDTH_NAME "Normal"
ADD_STYLE_NAME ""
PIXEL_SIZE 50
POINT_SIZE 500
RESOLUTION_X 72
RESOLUTION_Y 72
SPACING "P"
AVERAGE_WIDTH 160
CHARSET_REGISTRY "ISO10646"
CHARSET_ENCODING "1"
FONT_ASCENT 41
FONT_DESCENT 10
COPYRIGHT "Copyright Copr. 2001, Frantisek Storm, www.stormtype.com. All rights reserved."
_OTF_FONTFILE "Q:\font stuff\winfont\TeutonWeiss.otf"
_OTF_PSNAME "TeutonWeiss"
ENDPROPERTIES
CHARS 356
STARTCHAR 0020
ENCODING 32
SWIDTH 260 0
DWIDTH 13 0
BBX 0 0 0 0
BITMAP
ENDCHAR
STARTCHAR 0021
ENCODING 33
SWIDTH 180 0
DWIDTH 9 0
BBX 1 35 4 0
BITMAP
80
80
80
80
80
80
80
80
80
80
80
80
80
80
80
80
80
80
80
80
80
80
80
80
80
80
80
80
80
00
00
00
00
80
80
ENDCHAR
STARTCHAR 0022
ENCODING 34
SWIDTH 260 0
DWIDTH 13 0
BBX 5 8 4 27
BITMAP
88
88
88
88
88
88
88
88
ENDCHAR
STARTCHAR 0023
ENCODING 35
SWIDTH 440 0
DWIDTH 22 0
BBX 20 35 1 0
BITMAP
008040
008040
018040
010040
0100C0
010080
010080
010080
030080
020180
3FFFF0
020100
020100
020100
060100
040100
040300
040200
040200
040200
0C0200
080200
080600
080400
FFFFC0
080400
180400
100C00
100C00
100800
100800
100800
300800
201800
201000
ENDCHAR
STARTCHAR 0024
ENCODING 36
SWIDTH 400 0
DWIDTH 20 0
BBX 14 35 3 0
BITMAP
0100
0100
0100
0100
0100
3FFC
4000
8000
8000
8000
8000
C000
6000
3000
0C00
0600
0300
00C0
0060
0038
000C
0004
0004
0004
0004
0004
0004
0004
000C
FFF8
0100
0100
0100
0100
0100
ENDCHAR
STARTCHAR 0025
ENCODING 37
SWIDTH 520 0
DWIDTH 26 0
BBX 20 35 3 0
BITMAP
3F0030
408020
804060
804040
804080
804080
804100
804100
804200
804200
804400
804400
804800
804800
409000
3F3000
002000
006000
004000
0087C0
008820
011010
011010
021010
021010
041010
041010
081010
081010
101010
301010
201010
601010
400820
8007C0
ENDCHAR
STARTCHAR 0026
ENCODING 38
SWIDTH 580 0
DWIDTH 29 0
BBX 23 35 4 0
BITMAP
3FFFC0
400000
800000
800000
800000
800000
800000
800000
800000
800000
800000
800000
400000
3FFFFE
400040
800040
800040
800040
800040
800040
800040
800040
800040
800040
800040
800040
800040
800040
800040
800040
800040
800040
800040
600060
3FF83E
ENDCHAR
STARTCHAR 0027
ENCODING 39
SWIDTH 200 0
DWIDTH 10 0
BBX 1 8 4 27
BITMAP
80
80
80
80
80
80
80
80
ENDCHAR
STARTCHAR 0028
ENCODING 40
SWIDTH 340 0
DWIDTH 17 0
BBX 9 45 5 -10
BITMAP
0780
3800
6000
4000
8000
8000
8000
8000
8000
8000
8000
8000
8000
8000
8000
8000
8000
8000
8000
8000
8000
8000
8000
8000
8000
8000
8000
8000
8000
8000
8000
8000
8000
8000
8000
8000
8000
8000
8000
8000
C000
4000
6000
3800
0780
ENDCHAR
STARTCHAR 0029
ENCODING 41
SWIDTH 340 0
DWIDTH 17 0
BBX 9 45 3 -10
BITMAP
F800
0E00
0300
0100
0080
0080
0080
0080
0080
0080
0080
0080
0080
0080
0080
0080
0080
0080
0080
0080
0080
0080
0080
0080
0080
0080
0080
0080
0080
0080
0080
0080
0080
0080
0080
0080
0080
0080
0080
0080
0080
0100
0300
0E00
F000
ENDCHAR
STARTCHAR 002A
ENCODING 42
SWIDTH 420 0
DWIDTH 21 0
BBX 16 14 3 20
BITMAP
0180
0180
0180
0180
0100
E107
791E
07E0
0180
0240
0660
0430
0810
1818
ENDCHAR
STARTCHAR 002B
ENCODING 43
SWIDTH 440 0
DWIDTH 22 0
BBX 17 17 3 6
BITMAP
008000
008000
008000
008000
008000
008000
008000
008000
FFFF80
008000
008000
008000
008000
008000
008000
008000
008000
ENDCHAR
STARTCHAR 002C
ENCODING 44
SWIDTH 180 0
DWIDTH 9 0
BBX 3 9 2 -7
BITMAP
20
20
20
20
20
40
40
C0
80
ENDCHAR
STARTCHAR 002D
ENCODING 45
SWIDTH 300 0
DWIDTH 15 0
BBX 10 1 3 14
BITMAP
FFC0
ENDCHAR
STARTCHAR 002E
ENCODING 46
SWIDTH 180 0
DWIDTH 9 0
BBX 1 2 4 0
BITMAP
80
80
ENDCHAR
STARTCHAR 002F
ENCODING 47
SWIDTH 400 0
DWIDTH 20 0
BBX 20 45 0 -10
BITMAP
000030
000020
000020
000060
000040
0000C0
000080
000180
000180
000100
000300
000200
000600
000400
000400
000C00
000800
001800
001000
001000
003000
002000
006000
004000
00C000
00C000
008000
018000
010000
030000
020000
020000
060000
040000
0C0000
080000
080000
180000
100000
300000
200000
600000
600000
400000
C00000
ENDCHAR
STARTCHAR 0030
ENCODING 48
SWIDTH 520 0
DWIDTH 26 0
BBX 16 35 5 0
BITMAP
3FFC
4002
8001
8001
8001
8001
8001
8001
8001
8001
8001
8001
8001
8001
8001
8001
8001
8001
8001
8001
8001
8001
8001
8001
8001
8001
8001
8001
8001
8001
8001
8001
8001
4002
3FFC
ENDCHAR
STARTCHAR 0031
ENCODING 49
SWIDTH 520 0
DWIDTH 26 0
BBX 16 35 5 1
BITMAP
0180
0380
0680
1880
3080
C080
8080
0080
0080
0080
0080
0080
0080
0080
0080
0080
0080
0080
0080
0080
0080
0080
0080
0080
0080
0080
0080
0080
0080
0080
0080
0080
0080
0080
7FFF
ENDCHAR
STARTCHAR 0032
ENCODING 50
SWIDTH 520 0
DWIDTH 26 0
BBX 16 35 5 0
BITMAP
FFFC
0002
0001
0001
0001
0001
0001
0001
0001
0001
0002
0004
0008
0030
0060
00C0
0180
0200
0400
0800
1000
2000
4000
8000
8000
8000
8000
8000
8000
8000
8000
8000
8000
8000
FFFF
ENDCHAR
STARTCHAR 0033
ENCODING 51
SWIDTH 520 0
DWIDTH 26 0
BBX 17 35 4 0
BITMAP
FFFE00
000100
000080
000080
000080
000080
000080
000080
000080
000080
000080
000080
000080
000080
000080
000100
1FFE00
000100
000180
000080
000080
000080
000080
000080
000080
000080
000080
000080
000080
000080
000080
000080
000080
000100
FFFE00
ENDCHAR
STARTCHAR 0034
ENCODING 52
SWIDTH 520 0
DWIDTH 26 0
BBX 21 35 3 1
BITMAP
000600
000600
000A00
000A00
001200
003200
002200
004200
004200
008200
018200
010200
020200
020200
040200
0C0200
080200
100200
100200
200200
600200
400200
800200
FFFFF8
000200
000200
000200
000200
000200
000200
000200
000200
000200
000200
000200
ENDCHAR
STARTCHAR 0035
ENCODING 53
SWIDTH 520 0
DWIDTH 26 0
BBX 16 35 5 0
BITMAP
FFFF
8000
8000
8000
8000
8000
8000
8000
8000
8000
8000
8000
8000
8000
8000
8000
FFFC
0002
0001
0001
0001
0001
0001
0001
0001
0001
0001
0001
0001
0001
0001
0001
0001
0002
FFFC
ENDCHAR
STARTCHAR 0036
ENCODING 54
SWIDTH 520 0
DWIDTH 26 0
BBX 16 35 5 0
BITMAP
3FFF
4000
8000
8000
8000
8000
8000
8000
8000
8000
8000
8000
8000
8000
8000
8000
FFFC
8002
8001
8001
8001
8001
8001
8001
8001
8001
8001
8001
8001
8001
8001
8001
8001
4002
3FFC
ENDCHAR
STARTCHAR 0037
ENCODING 55
SWIDTH 520 0
DWIDTH 26 0
BBX 18 35 4 0
BITMAP
FFFFC0
000040
000080
000080
000080
000100
000100
000100
000200
000200
000200
000400
000400
000400
000800
000800
001800
001000
001000
002000
002000
002000
004000
004000
004000
008000
008000
008000
010000
010000
030000
020000
020000
060000
040000
ENDCHAR
STARTCHAR 0038
ENCODING 56
SWIDTH 520 0
DWIDTH 26 0
BBX 16 35 5 0
BITMAP
3FFC
4002
8001
8001
8001
8001
8001
8001
8001
8001
8001
8001
8001
8001
8001
4002
3FFC
4002
C003
8001
8001
8001
8001
8001
8001
8001
8001
8001
8001
8001
8001
8001
8001
4002
3FFC
ENDCHAR
STARTCHAR 0039
ENCODING 57
SWIDTH 520 0
DWIDTH 26 0
BBX 17 35 4 0
BITMAP
3FFE00
400100
800080
800080
800080
800080
800080
800080
800080
800080
800080
800080
800080
800080
800080
400080
3FFF80
000080
000080
000080
000080
000080
000080
000080
000080
000080
000080
000080
000080
000080
000080
000080
000080
000100
FFFE00
ENDCHAR
STARTCHAR 003A
ENCODING 58
SWIDTH 180 0
DWIDTH 9 0
BBX 1 25 4 0
BITMAP
80
80
00
00
00
00
00
00
00
00
00
00
00
00
00
00
00
00
00
00
00
00
00
80
80
ENDCHAR
STARTCHAR 003B
ENCODING 59
SWIDTH 180 0
DWIDTH 9 0
BBX 3 32 2 -7
BITMAP
20
20
00
00
00
00
00
00
00
00
00
00
00
00
00
00
00
00
00
00
00
00
00
20
20
20
20
20
40
40
C0
80
ENDCHAR
STARTCHAR 003C
ENCODING 60
SWIDTH 440 0
DWIDTH 22 0
BBX 17 20 3 6
BITMAP
000080
000300
000C00
001000
006000
018000
060000
0C0000
300000
C00000
C00000
700000
180000
060000
018000
00C000
003000
000C00
000600
000180
ENDCHAR
STARTCHAR 003D
ENCODING 61
SWIDTH 440 0
DWIDTH 22 0
BBX 17 11 3 10
BITMAP
FFFF80
000000
000000
000000
000000
000000
000000
000000
000000
000000
FFFF80
ENDCHAR
STARTCHAR 003E
ENCODING 62
SWIDTH 440 0
DWIDTH 22 0
BBX 17 20 3 6
BITMAP
800000
600000
180000
060000
030000
00C000
003000
001800
000600
000380
000180
000700
000C00
003000
004000
018000
060000
080000
300000
C00000
ENDCHAR
STARTCHAR 003F
ENCODING 63
SWIDTH 380 0
DWIDTH 19 0
BBX 16 35 2 0
BITMAP
FFFC
0002
0001
0001
0001
0001
0001
0001
0002
0004
0008
0010
0020
00C0
0180
0100
0200
0200
0200
0200
0200
0200
0200
0200
0200
0200
0200
0200
0200
0000
0000
0000
0000
0200
0200
ENDCHAR
STARTCHAR 0040
ENCODING 64
SWIDTH 680 0
DWIDTH 34 0
BBX 26 35 5 -5
BITMAP
3FFF0000
40008000
80004000
80004000
80004000
80004000
80004000
80004000
80004000
807FC040
80804040
81004040
81004040
81004040
81004040
81004040
81004040
81004040
81004040
81004040
81004040
81004040
81004040
81004040
80804040
807FC040
80000040
80000040
80000040
80000040
80000040
80000040
80000040
40000080
3FFFFF00
ENDCHAR
STARTCHAR 0041
ENCODING 65
SWIDTH 500 0
DWIDTH 25 0
BBX 23 35 1 1
BITMAP
003800
002800
002800
002C00
004400
004400
004600
008200
008200
008200
018300
010100
010100
010180
020080
020080
0200C0
040040
040040
040040
0C0060
080020
080020
0FFFF0
100010
100010
100018
200018
200008
200008
60000C
400004
400004
C00006
800006
ENDCHAR
STARTCHAR 0042
ENCODING 66
SWIDTH 560 0
DWIDTH 28 0
BBX 19 35 4 0
BITMAP
FFFF80
800040
800020
800020
800020
800020
800020
800020
800020
800020
800020
800020
800020
800020
800020
8000C0
FFFF80
8000C0
800060
800020
800020
800020
800020
800020
800020
800020
800020
800020
800020
800020
800020
800020
800020
800040
FFFF80
ENDCHAR
STARTCHAR 0043
ENCODING 67
SWIDTH 480 0
DWIDTH 24 0
BBX 18 35 5 0
BITMAP
3FFFC0
400000
800000
800000
800000
800000
800000
800000
800000
800000
800000
800000
800000
800000
800000
800000
800000
800000
800000
800000
800000
800000
800000
800000
800000
800000
800000
800000
800000
800000
800000
800000
800000
400000
3FFFC0
ENDCHAR
STARTCHAR 0044
ENCODING 68
SWIDTH 560 0
DWIDTH 28 0
BBX 18 35 5 0
BITMAP
FFFF00
800080
800040
800040
800040
800040
800040
800040
800040
800040
800040
800040
800040
800040
800040
800040
800040
800040
800040
800040
800040
800040
800040
800040
800040
800040
800040
800040
800040
800040
800040
800040
800040
800080
FFFF00
ENDCHAR
STARTCHAR 0045
ENCODING 69
SWIDTH 480 0
DWIDTH 24 0
BBX 18 35 5 0
BITMAP
FFFF80
800000
800000
800000
800000
800000
800000
800000
800000
800000
800000
800000
800000
800000
800000
800000
FFFC00
800000
800000
800000
800000
800000
800000
800000
800000
800000
800000
800000
800000
800000
800000
800000
800000
800000
FFFFC0
ENDCHAR
STARTCHAR 0046
ENCODING 70
SWIDTH 440 0
DWIDTH 22 0
BBX 17 35 5 0
BITMAP
FFFF80
800000
800000
800000
800000
800000
800000
800000
800000
800000
800000
800000
800000
800000
800000
800000
FFFC00
800000
800000
800000
800000
800000
800000
800000
800000
800000
800000
800000
800000
800000
800000
800000
800000
800000
800000
ENDCHAR
STARTCHAR 0047
ENCODING 71
SWIDTH 560 0
DWIDTH 28 0
BBX 18 35 5 0
BITMAP
3FFFC0
400000
800000
800000
800000
800000
800000
800000
800000
800000
800000
800000
800000
800000
800000
800000
807FC0
800040
800040
800040
800040
800040
800040
800040
800040
800040
800040
800040
800040
800040
800040
800040
800040
400080
3FFF00
ENDCHAR
STARTCHAR 0048
ENCODING 72
SWIDTH 560 0
DWIDTH 28 0
BBX 18 35 5 0
BITMAP
800040
800040
800040
800040
800040
800040
800040
800040
800040
800040
800040
800040
800040
800040
800040
800040
FFFFC0
800040
800040
800040
800040
800040
800040
800040
800040
800040
800040
800040
800040
800040
800040
800040
800040
800040
800040
ENDCHAR
STARTCHAR 0049
ENCODING 73
SWIDTH 200 0
DWIDTH 10 0
BBX 1 35 5 0
BITMAP
80
80
80
80
80
80
80
80
80
80
80
80
80
80
80
80
80
80
80
80
80
80
80
80
80
80
80
80
80
80
80
80
80
80
80
ENDCHAR
STARTCHAR 004A
ENCODING 74
SWIDTH 320 0
DWIDTH 16 0
BBX 11 35 1 1
BITMAP
0020
0020
0020
0020
0020
0020
0020
0020
0020
0020
0020
0020
0020
0020
0020
0020
0020
0020
0020
0020
0020
0020
0020
0020
0020
0020
0020
0020
0020
0020
0020
0020
0020
0040
FF80
ENDCHAR
STARTCHAR 004B
ENCODING 75
SWIDTH 500 0
DWIDTH 25 0
BBX 18 35 5 0
BITMAP
8000C0
800080
800180
800100
800300
800200
800600
800400
800800
800800
801000
801000
802000
802000
804000
80C000
FF0000
80C000
804000
802000
802000
801000
801000
800800
800800
800400
800400
800600
800200
800300
800100
800180
800080
8000C0
800040
ENDCHAR
STARTCHAR 004C
ENCODING 76
SWIDTH 460 0
DWIDTH 23 0
BBX 18 35 5 1
BITMAP
800000
800000
800000
800000
800000
800000
800000
800000
800000
800000
800000
800000
800000
800000
800000
800000
800000
800000
800000
800000
800000
800000
800000
800000
800000
800000
800000
800000
800000
800000
800000
800000
800000
800000
FFFFC0
ENDCHAR
STARTCHAR 004D
ENCODING 77
SWIDTH 620 0
DWIDTH 31 0
BBX 21 35 5 0
BITMAP
C00018
C00018
E00018
A00028
A00028
900048
900048
900048
880088
880088
8C0108
840108
840108
820208
820208
830608
810408
810408
818808
808808
808808
805008
805008
806008
802008
800008
800008
800008
800008
800008
800008
800008
800008
800008
800008
ENDCHAR
STARTCHAR 004E
ENCODING 78
SWIDTH 560 0
DWIDTH 28 0
BBX 19 35 5 0
BITMAP
C00020
C00020
E00020
A00020
B00020
900020
980020
880020
8C0020
840020
860020
820020
830020
810020
818020
808020
80C020
804020
806020
802020
803020
801020
801820
800820
800820
800420
800420
800220
800220
800120
800120
8000A0
8000A0
800060
800060
ENDCHAR
STARTCHAR 004F
ENCODING 79
SWIDTH 560 0
DWIDTH 28 0
BBX 18 35 5 0
BITMAP
3FFF00
400080
800040
800040
800040
800040
800040
800040
800040
800040
800040
800040
800040
800040
800040
800040
800040
800040
800040
800040
800040
800040
800040
800040
800040
800040
800040
800040
800040
800040
800040
800040
800040
400080
3FFF00
ENDCHAR
STARTCHAR 0050
ENCODING 80
SWIDTH 520 0
DWIDTH 26 0
BBX 18 35 5 0
BITMAP
FFFF00
800080
800040
800040
800040
800040
800040
800040
800040
800040
800040
800040
800040
800040
800040
800080
FFFF00
800000
800000
800000
800000
800000
800000
800000
800000
800000
800000
800000
800000
800000
800000
800000
800000
800000
800000
ENDCHAR
STARTCHAR 0051
ENCODING 81
SWIDTH 560 0
DWIDTH 28 0
BBX 18 45 5 -10
BITMAP
3FFF00
400080
800040
800040
800040
800040
800040
800040
800040
800040
800040
800040
800040
800040
800040
800040
800040
800040
800040
800040
800040
800040
800040
800040
800040
800040
800040
808040
80C040
804040
804040
806040
802040
402080
3FFF00
001000
001800
000800
000800
000C00
000400
000400
000600
000200
000200
ENDCHAR
STARTCHAR 0052
ENCODING 82
SWIDTH 560 0
DWIDTH 28 0
BBX 20 35 5 0
BITMAP
FFFF00
800080
800040
800040
800040
800040
800040
800040
800040
800040
800040
800040
800040
800040
800040
800080
FFFF00
800400
800400
800400
800200
800200
800200
800100
800100
800180
800080
800080
8000C0
800040
800040
800060
800020
800020
800030
ENDCHAR
STARTCHAR 0053
ENCODING 83
SWIDTH 520 0
DWIDTH 26 0
BBX 17 35 4 0
BITMAP
3FFF80
400000
800000
800000
800000
800000
800000
800000
800000
800000
400000
600000
100000
080000
060000
030000
018000
004000
002000
001000
000C00
000600
000300
000180
000080
000080
000080
000080
000080
000080
000080
000080
000080
000100
FFFE00
ENDCHAR
STARTCHAR 0054
ENCODING 84
SWIDTH 460 0
DWIDTH 23 0
BBX 21 35 1 0
BITMAP
FFFFF8
002000
002000
002000
002000
002000
002000
002000
002000
002000
002000
002000
002000
002000
002000
002000
002000
002000
002000
002000
002000
002000
002000
002000
002000
002000
002000
002000
002000
002000
002000
002000
002000
002000
002000
ENDCHAR
STARTCHAR 0055
ENCODING 85
SWIDTH 560 0
DWIDTH 28 0
BBX 18 35 5 1
BITMAP
800040
800040
800040
800040
800040
800040
800040
800040
800040
800040
800040
800040
800040
800040
800040
800040
800040
800040
800040
800040
800040
800040
800040
800040
800040
800040
800040
800040
800040
800040
800040
800040
800040
400080
3FFF00
ENDCHAR
STARTCHAR 0056
ENCODING 86
SWIDTH 500 0
DWIDTH 25 0
BBX 23 35 1 0
BITMAP
C00006
C00006
400004
400004
60000C
200008
200008
300018
100010
100010
100010
180020
080020
080020
0C0060
040040
040040
0600C0
020080
020080
020080
030100
010100
010100
018300
008200
008200
00C600
004400
004400
004400
006800
002800
002800
003000
ENDCHAR
STARTCHAR 0057
ENCODING 87
SWIDTH 780 0
DWIDTH 39 0
BBX 35 35 2 1
BITMAP
8000400020
C000600060
4000A00040
4000A00040
4000A00040
6000A000C0
2001300080
2001100080
2001100080
3001100180
1001100100
1002080100
1002080100
1802080300
0802080200
0802080200
0804040200
0C04040400
0404040400
0404040400
0408060400
0608020800
0208020800
0208020800
0208020800
0210031000
0110011000
0110011000
0110011000
0110012000
00A000A000
00A000A000
00A000A000
00A000C000
004000C000
ENDCHAR
STARTCHAR 0058
ENCODING 88
SWIDTH 540 0
DWIDTH 27 0
BBX 25 35 1 0
BITMAP
30000400
18000C00
08000800
0C001800
04001000
06002000
03006000
01004000
0180C000
00808000
00410000
00430000
00220000
00360000
00140000
00080000
001C0000
00140000
00220000
00630000
00410000
00C18000
00808000
01004000
03006000
02002000
06003000
04001000
08000800
18000C00
10000400
30000600
20000300
40000100
C0000180
ENDCHAR
STARTCHAR 0059
ENCODING 89
SWIDTH 520 0
DWIDTH 26 0
BBX 25 35 1 0
BITMAP
C0000180
40000100
60000300
30000600
10000400
18000C00
08000800
04001000
06003000
02002000
03006000
01004000
00808000
00C18000
00410000
00620000
00220000
00140000
001C0000
00080000
00080000
00080000
00080000
00080000
00080000
00080000
00080000
00080000
00080000
00080000
00080000
00080000
00080000
00080000
00080000
ENDCHAR
STARTCHAR 005A
ENCODING 90
SWIDTH 500 0
DWIDTH 25 0
BBX 20 35 3 0
BITMAP
FFFFF0
000010
000020
000020
000040
000080
000080
000100
000100
000200
000200
000400
000800
000800
001000
001000
002000
002000
004000
008000
008000
010000
010000
020000
060000
040000
0C0000
080000
100000
100000
200000
600000
400000
C00000
FFFFF0
ENDCHAR
STARTCHAR 005B
ENCODING 91
SWIDTH 340 0
DWIDTH 17 0
BBX 9 45 5 -10
BITMAP
FF80
8000
8000
8000
8000
8000
8000
8000
8000
8000
8000
8000
8000
8000
8000
8000
8000
8000
8000
8000
8000
8000
8000
8000
8000
8000
8000
8000
8000
8000
8000
8000
8000
8000
8000
8000
8000
8000
8000
8000
8000
8000
8000
8000
FF80
ENDCHAR
STARTCHAR 005C
ENCODING 92
SWIDTH 400 0
DWIDTH 20 0
BBX 20 35 0 0
BITMAP
C00000
400000
600000
200000
300000
100000
180000
080000
0C0000
060000
020000
030000
010000
018000
008000
00C000
004000
006000
002000
003000
001000
001800
000800
000C00
000400
000600
000300
000100
000180
000080
0000C0
000040
000060
000020
000030
ENDCHAR
STARTCHAR 005D
ENCODING 93
SWIDTH 280 0
DWIDTH 14 0
BBX 9 45 3 -10
BITMAP
FF80
0080
0080
0080
0080
0080
0080
0080
0080
0080
0080
0080
0080
0080
0080
0080
0080
0080
0080
0080
0080
0080
0080
0080
0080
0080
0080
0080
0080
0080
0080
0080
0080
0080
0080
0080
0080
0080
0080
0080
0080
0080
0080
0080
FF80
ENDCHAR
STARTCHAR 005E
ENCODING 94
SWIDTH 340 0
DWIDTH 17 0
BBX 16 13 1 22
BITMAP
0180
0180
0240
0240
0420
0830
0810
1008
1008
2004
4002
4002
8001
ENDCHAR
STARTCHAR 005F
ENCODING 95
SWIDTH 720 0
DWIDTH 36 0
BBX 31 1 3 -6
BITMAP
FFFFFFFE
ENDCHAR
STARTCHAR 0060
ENCODING 96
SWIDTH 280 0
DWIDTH 14 0
BBX 6 6 4 28
BITMAP
C0
60
20
10
08
04
ENDCHAR
STARTCHAR 0061
ENCODING 97
SWIDTH 460 0
DWIDTH 23 0
BBX 15 25 4 0
BITMAP
FFF8
0004
0002
0002
0002
0002
0002
0002
0002
0002
3FFE
4002
8002
8002
8002
8002
8002
8002
8002
8002
8002
8002
8002
4002
3FFE
ENDCHAR
STARTCHAR 0062
ENCODING 98
SWIDTH 480 0
DWIDTH 24 0
BBX 15 35 4 0
BITMAP
8000
8000
8000
8000
8000
8000
8000
8000
8000
8000
FFF8
8004
8002
8002
8002
8002
8002
8002
8002
8002
8002
8002
8002
8002
8002
8002
8002
8002
8002
8002
8002
8002
8002
8004
FFF8
ENDCHAR
STARTCHAR 0063
ENCODING 99
SWIDTH 400 0
DWIDTH 20 0
BBX 14 25 4 0
BITMAP
3FFC
4000
8000
8000
8000
8000
8000
8000
8000
8000
8000
8000
8000
8000
8000
8000
8000
8000
8000
8000
8000
8000
8000
4000
3FFC
ENDCHAR
STARTCHAR 0064
ENCODING 100
SWIDTH 480 0
DWIDTH 24 0
BBX 15 35 4 0
BITMAP
0002
0002
0002
0002
0002
0002
0002
0002
0002
0002
3FFE
4002
8002
8002
8002
8002
8002
8002
8002
8002
8002
8002
8002
8002
8002
8002
8002
8002
8002
8002
8002
8002
8002
4002
3FFE
ENDCHAR
STARTCHAR 0065
ENCODING 101
SWIDTH 460 0
DWIDTH 23 0
BBX 15 25 4 0
BITMAP
3FF8
4004
8002
8002
8002
8002
8002
8002
8002
8002
FFFE
8000
8000
8000
8000
8000
8000
8000
8000
8000
8000
8000
8000
4000
3FFE
ENDCHAR
STARTCHAR 0066
ENCODING 102
SWIDTH 260 0
DWIDTH 13 0
BBX 8 35 4 0
BITMAP
3F
40
80
80
80
80
80
80
80
80
FF
80
80
80
80
80
80
80
80
80
80
80
80
80
80
80
80
80
80
80
80
80
80
80
80
ENDCHAR
STARTCHAR 0067
ENCODING 103
SWIDTH 480 0
DWIDTH 24 0
BBX 15 35 4 -10
BITMAP
3FFE
4002
8002
8002
8002
8002
8002
8002
8002
8002
8002
8002
8002
8002
8002
8002
8002
8002
8002
8002
8002
8002
8002
4002
7FFE
0002
0002
0002
0002
0002
0002
0002
0002
0004
FFF8
ENDCHAR
STARTCHAR 0068
ENCODING 104
SWIDTH 480 0
DWIDTH 24 0
BBX 15 35 4 0
BITMAP
8000
8000
8000
8000
8000
8000
8000
8000
8000
8000
FFF8
8004
8002
8002
8002
8002
8002
8002
8002
8002
8002
8002
8002
8002
8002
8002
8002
8002
8002
8002
8002
8002
8002
8002
8002
ENDCHAR
STARTCHAR 0069
ENCODING 105
SWIDTH 200 0
DWIDTH 10 0
BBX 1 31 4 0
BITMAP
80
80
00
00
00
00
80
80
80
80
80
80
80
80
80
80
80
80
80
80
80
80
80
80
80
80
80
80
80
80
80
ENDCHAR
STARTCHAR 006A
ENCODING 106
SWIDTH 200 0
DWIDTH 10 0
BBX 3 41 2 -11
BITMAP
20
20
00
00
00
00
20
20
20
20
20
20
20
20
20
20
20
20
20
20
20
20
20
20
20
20
20
20
20
20
20
20
20
20
20
20
20
40
40
40
C0
ENDCHAR
STARTCHAR 006B
ENCODING 107
SWIDTH 440 0
DWIDTH 22 0
BBX 15 35 4 0
BITMAP
8000
8000
8000
8000
8000
8000
8000
8000
8000
8000
8004
8004
8008
8008
8010
8010
8020
8060
8040
80C0
8080
FF00
8080
80C0
8040
8060
8020
8030
8010
8018
8008
8008
8004
8004
8002
ENDCHAR
STARTCHAR 006C
ENCODING 108
SWIDTH 200 0
DWIDTH 10 0
BBX 1 35 4 0
BITMAP
80
80
80
80
80
80
80
80
80
80
80
80
80
80
80
80
80
80
80
80
80
80
80
80
80
80
80
80
80
80
80
80
80
80
80
ENDCHAR
STARTCHAR 006D
ENCODING 109
SWIDTH 680 0
DWIDTH 34 0
BBX 26 25 4 0
BITMAP
FFE3FF00
80140080
80080040
80080040
80080040
80080040
80080040
80080040
80080040
80080040
80080040
80080040
80080040
80080040
80080040
80080040
80080040
80080040
80080040
80080040
80080040
80080040
80080040
80080040
80080040
ENDCHAR
STARTCHAR 006E
ENCODING 110
SWIDTH 480 0
DWIDTH 24 0
BBX 15 25 4 0
BITMAP
FFF8
8004
8002
8002
8002
8002
8002
8002
8002
8002
8002
8002
8002
8002
8002
8002
8002
8002
8002
8002
8002
8002
8002
8002
8002
ENDCHAR
STARTCHAR 006F
ENCODING 111
SWIDTH 480 0
DWIDTH 24 0
BBX 15 25 4 0
BITMAP
3FF8
4004
8002
8002
8002
8002
8002
8002
8002
8002
8002
8002
8002
8002
8002
8002
8002
8002
8002
8002
8002
8002
8002
4004
3FF8
ENDCHAR
STARTCHAR 0070
ENCODING 112
SWIDTH 480 0
DWIDTH 24 0
BBX 15 35 4 -10
BITMAP
FFF8
8004
8002
8002
8002
8002
8002
8002
8002
8002
8002
8002
8002
8002
8002
8002
8002
8002
8002
8002
8002
8002
8002
8004
FFF8
8000
8000
8000
8000
8000
8000
8000
8000
8000
8000
ENDCHAR
STARTCHAR 0071
ENCODING 113
SWIDTH 480 0
DWIDTH 24 0
BBX 15 35 4 -10
BITMAP
3FFE
4002
8002
8002
8002
8002
8002
8002
8002
8002
8002
8002
8002
8002
8002
8002
8002
8002
8002
8002
8002
8002
8002
4002
3FFE
0002
0002
0002
0002
0002
0002
0002
0002
0002
0002
ENDCHAR
STARTCHAR 0072
ENCODING 114
SWIDTH 300 0
DWIDTH 15 0
BBX 9 25 4 0
BITMAP
BF80
C000
8000
8000
8000
8000
8000
8000
8000
8000
8000
8000
8000
8000
8000
8000
8000
8000
8000
8000
8000
8000
8000
8000
8000
ENDCHAR
STARTCHAR 0073
ENCODING 115
SWIDTH 400 0
DWIDTH 20 0
BBX 14 25 3 0
BITMAP
3FFC
4000
8000
8000
8000
8000
8000
4000
2000
1800
0C00
0600
0180
00C0
0030
0018
0008
0004
0004
0004
0004
0004
0004
0008
FFF0
ENDCHAR
STARTCHAR 0074
ENCODING 116
SWIDTH 280 0
DWIDTH 14 0
BBX 8 31 4 1
BITMAP
80
80
80
80
80
80
FF
80
80
80
80
80
80
80
80
80
80
80
80
80
80
80
80
80
80
80
80
80
80
40
3F
ENDCHAR
STARTCHAR 0075
ENCODING 117
SWIDTH 480 0
DWIDTH 24 0
BBX 15 25 4 0
BITMAP
8002
8002
8002
8002
8002
8002
8002
8002
8002
8002
8002
8002
8002
8002
8002
8002
8002
8002
8002
8002
8002
8002
8002
4002
3FFE
ENDCHAR
STARTCHAR 0076
ENCODING 118
SWIDTH 400 0
DWIDTH 20 0
BBX 18 25 1 0
BITMAP
800040
C000C0
400080
400080
600180
200100
200100
300200
100200
100200
180400
080400
080400
0C0800
040800
040800
061000
021000
021000
032000
012000
012000
01C000
00C000
00C000
ENDCHAR
STARTCHAR 0077
ENCODING 119
SWIDTH 620 0
DWIDTH 31 0
BBX 27 25 2 0
BITMAP
80040020
C00A0060
400A0040
400A0040
400A0040
600A0080
20110080
20110080
20110080
10110100
10208100
10208100
18208200
08208200
08208200
08404200
0C404400
04404400
04404400
04804400
02802800
02802800
02802800
02803000
01001000
ENDCHAR
STARTCHAR 0078
ENCODING 120
SWIDTH 420 0
DWIDTH 21 0
BBX 18 25 2 0
BITMAP
C000C0
400080
200100
300300
100200
080400
0C0C00
040800
021000
033000
012000
00C000
00C000
00C000
012000
033000
021000
040800
0C0C00
080400
100200
300300
200100
400080
C000C0
ENDCHAR
STARTCHAR 0079
ENCODING 121
SWIDTH 400 0
DWIDTH 20 0
BBX 18 35 1 -10
BITMAP
800040
C000C0
400080
400080
600180
200100
200100
300300
100200
100200
180600
080400
080400
0C0C00
040800
040800
061800
021000
021000
031000
012000
012000
01A000
00C000
00C000
00C000
008000
008000
018000
010000
010000
030000
020000
020000
060000
ENDCHAR
STARTCHAR 007A
ENCODING 122
SWIDTH 400 0
DWIDTH 20 0
BBX 16 25 2 0
BITMAP
FFFF
0001
0002
0004
0004
0008
0010
0010
0020
0040
0040
0080
0080
0100
0200
0200
0400
0800
0800
1000
2000
2000
4000
C000
FFFF
ENDCHAR
STARTCHAR 007B
ENCODING 123
SWIDTH 340 0
DWIDTH 17 0
BBX 12 45 2 -10
BITMAP
00F0
0700
0C00
0800
1000
1000
1000
1000
1000
1000
1000
1000
1000
1000
1000
1000
1000
1000
1000
1000
2000
C000
2000
1000
1000
1000
1000
1000
1000
1000
1000
1000
1000
1000
1000
1000
1000
1000
1000
1000
1800
0800
0C00
0700
00F0
ENDCHAR
STARTCHAR 007C
ENCODING 124
SWIDTH 180 0
DWIDTH 9 0
BBX 1 45 4 -10
BITMAP
80
80
80
80
80
80
80
80
80
80
80
80
80
80
80
80
80
80
80
80
80
80
80
80
80
80
80
80
80
80
80
80
80
80
80
80
80
80
80
80
80
80
80
80
80
ENDCHAR
STARTCHAR 007D
ENCODING 125
SWIDTH 340 0
DWIDTH 17 0
BBX 12 45 3 -10
BITMAP
F800
0E00
0300
0100
0080
0080
0080
0080
0080
0080
0080
0080
0080
0080
0080
0080
0080
0080
0080
0080
0040
0030
0040
0080
0080
0080
0080
0080
0080
0080
0080
0080
0080
0080
0080
0080
0080
0080
0080
0080
0080
0100
0300
0E00
F000
ENDCHAR
STARTCHAR 007E
ENCODING 126
SWIDTH 460 0
DWIDTH 23 0
BBX 19 7 2 22
BITMAP
3C0020
630020
408020
804020
802060
801840
800780
ENDCHAR
STARTCHAR 00A0
ENCODING 160
SWIDTH 260 0
DWIDTH 13 0
BBX 0 0 0 0
BITMAP
ENDCHAR
STARTCHAR 00A1
ENCODING 161
SWIDTH 180 0
DWIDTH 9 0
BBX 1 35 4 -10
BITMAP
80
80
00
00
00
00
80
80
80
80
80
80
80
80
80
80
80
80
80
80
80
80
80
80
80
80
80
80
80
80
80
80
80
80
80
ENDCHAR
STARTCHAR 00A2
ENCODING 162
SWIDTH 380 0
DWIDTH 19 0
BBX 14 35 3 0
BITMAP
0100
0100
0100
0100
0100
3FFC
4000
8000
8000
8000
8000
8000
8000
8000
8000
8000
8000
8000
8000
8000
8000
8000
8000
8000
8000
8000
8000
8000
4000
3FFC
0100
0100
0100
0100
0100
ENDCHAR
STARTCHAR 00A3
ENCODING 163
SWIDTH 460 0
DWIDTH 23 0
BBX 20 35 3 0
BITMAP
0FF000
100000
200000
200000
200000
200000
200000
200000
200000
200000
200000
200000
200000
200000
200000
200000
200000
FFE000
200000
200000
200000
200000
200000
200000
200000
200000
200000
200000
200000
200000
200000
200000
200000
200000
3FFFF0
ENDCHAR
STARTCHAR 00A4
ENCODING 164
SWIDTH 480 0
DWIDTH 24 0
BBX 21 35 1 1
BITMAP
400018
400010
600030
200030
200060
3000E0
1FFFC0
1800C0
100040
100040
100040
100040
100040
100040
100040
100040
100040
100040
100040
100040
100040
100040
100040
100040
100040
100040
100040
1800C0
1FFFC0
300060
200060
200030
600030
400010
C00018
ENDCHAR
STARTCHAR 00A5
ENCODING 165
SWIDTH 520 0
DWIDTH 26 0
BBX 25 35 1 1
BITMAP
C0000180
40000300
20000200
30000600
10000400
18000800
0C001800
04001000
06003000
02002000
01004000
0180C000
00808000
00C10000
00410000
00220000
00360000
00140000
00080000
00080000
00080000
00080000
00FF8000
00080000
00080000
00080000
00080000
00080000
00080000
00080000
00080000
00080000
00080000
00080000
00080000
ENDCHAR
STARTCHAR 00A7
ENCODING 167
SWIDTH 400 0
DWIDTH 20 0
BBX 14 45 3 -10
BITMAP
3FFC
4000
8000
8000
8000
8000
8000
8000
C000
A000
9800
8C00
8300
8180
8040
8030
8008
800C
8004
8004
8004
8004
8004
8004
8004
C004
4004
3004
0804
0604
0304
00C4
0064
0014
000C
0004
0004
0004
0004
0004
0004
0004
0004
0008
FFF0
ENDCHAR
STARTCHAR 00A8
ENCODING 168
SWIDTH 300 0
DWIDTH 15 0
BBX 7 2 4 31
BITMAP
82
82
ENDCHAR
STARTCHAR 00A9
ENCODING 169
SWIDTH 640 0
DWIDTH 32 0
BBX 23 35 5 0
BITMAP
3FFFF8
400004
800002
800002
83FFE2
840002
880002
880002
880002
880002
880002
880002
880002
880002
880002
880002
880002
880002
880002
880002
880002
880002
880002
880002
880002
880002
880002
880002
8C0002
87FFE2
800002
800002
800002
400004
3FFFF8
ENDCHAR
STARTCHAR 00AA
ENCODING 170
SWIDTH 460 0
DWIDTH 23 0
BBX 15 35 4 0
BITMAP
FFF8
0004
0002
0002
0002
0002
0002
0002
0002
0002
3FFE
4002
8002
8002
8002
8002
8002
8002
8002
8002
8002
8002
8002
4002
3FFE
0000
0000
0000
0000
0000
0000
0000
0000
0000
FFFE
ENDCHAR
STARTCHAR 00AB
ENCODING 171
SWIDTH 560 0
DWIDTH 28 0
BBX 24 20 2 5
BITMAP
000801
001002
00600C
00C018
018030
060040
0C0180
180300
300600
C01800
C01800
600C00
300700
0C0180
0600C0
030060
008018
00600C
003006
001803
ENDCHAR
STARTCHAR 00AC
ENCODING 172
SWIDTH 440 0
DWIDTH 22 0
BBX 17 15 3 0
BITMAP
FFFF80
000080
000080
000080
000080
000080
000080
000080
000080
000080
000080
000080
000080
000080
000080
ENDCHAR
STARTCHAR 00AE
ENCODING 174
SWIDTH 640 0
DWIDTH 32 0
BBX 23 35 5 0
BITMAP
3FFFF8
400004
800002
800002
8FFF82
8800C2
880042
880042
880042
880042
880042
880042
880042
880042
880042
880042
880082
8FFF02
880402
880202
880202
880102
880102
880182
880082
8800C2
880042
880042
880022
880022
800002
800002
800002
400004
3FFFF8
ENDCHAR
STARTCHAR 00AF
ENCODING 175
SWIDTH 360 0
DWIDTH 18 0
BBX 10 1 4 31
BITMAP
FFC0
ENDCHAR
STARTCHAR 00B0
ENCODING 176
SWIDTH 320 0
DWIDTH 16 0
BBX 10 16 3 19
BITMAP
3F00
4080
8040
8040
8040
8040
8040
8040
8040
8040
8040
8040
8040
8040
4080
3F00
ENDCHAR
STARTCHAR 00B1
ENCODING 177
SWIDTH 440 0
DWIDTH 22 0
BBX 17 23 3 1
BITMAP
008000
008000
008000
008000
008000
008000
008000
008000
FFFF80
008000
008000
008000
008000
008000
008000
008000
008000
000000
000000
000000
000000
000000
FFFF80
ENDCHAR
STARTCHAR 00B4
ENCODING 180
SWIDTH 280 0
DWIDTH 14 0
BBX 5 6 5 28
BITMAP
08
10
20
40
C0
80
ENDCHAR
STARTCHAR 00B5
ENCODING 181
SWIDTH 480 0
DWIDTH 24 0
BBX 15 35 4 -10
BITMAP
8002
8002
8002
8002
8002
8002
8002
8002
8002
8002
8002
8002
8002
8002
8002
8002
8002
8002
8002
8002
8002
8002
8002
C002
BFFE
8000
8000
8000
8000
8000
8000
8000
8000
8000
8000
ENDCHAR
STARTCHAR 00B6
ENCODING 182
SWIDTH 520 0
DWIDTH 26 0
BBX 18 35 5 0
BITMAP
3FFFC0
7FFFC0
FFFFC0
FFFFC0
FFFFC0
FFFFC0
FFFFC0
FFFFC0
FFFFC0
FFFFC0
FFFFC0
FFFFC0
FFFFC0
FFFFC0
FFFFC0
FFFFC0
3FFFC0
000040
000040
000040
000040
000040
000040
000040
000040
000040
000040
000040
000040
000040
000040
000040
000040
000040
000040
ENDCHAR
STARTCHAR 00B7
ENCODING 183
SWIDTH 180 0
DWIDTH 9 0
BBX 2 2 3 13
BITMAP
C0
C0
ENDCHAR
STARTCHAR 00B8
ENCODING 184
SWIDTH 320 0
DWIDTH 16 0
BBX 9 11 3 -10
BITMAP
0800
1000
1000
1F00
0180
0080
0080
0080
0080
0180
FE00
ENDCHAR
STARTCHAR 00BA
ENCODING 186
SWIDTH 480 0
DWIDTH 24 0
BBX 15 35 4 0
BITMAP
3FF8
4004
8002
8002
8002
8002
8002
8002
8002
8002
8002
8002
8002
8002
8002
8002
8002
8002
8002
8002
8002
8002
8002
4004
3FF8
0000
0000
0000
0000
0000
0000
0000
0000
0000
FFFE
ENDCHAR
STARTCHAR 00BB
ENCODING 187
SWIDTH 560 0
DWIDTH 28 0
BBX 24 20 2 5
BITMAP
801000
C00800
300600
180300
0C0180
070060
018030
00C018
00600C
003803
001803
003006
00600C
018030
030060
0600C0
080100
300600
600C00
C01800
ENDCHAR
STARTCHAR 00BF
ENCODING 191
SWIDTH 380 0
DWIDTH 19 0
BBX 15 35 3 -10
BITMAP
0080
0080
0000
0000
0000
0000
0080
0080
0080
0080
0080
0080
0080
0080
0080
0080
0080
0080
0080
0100
0100
0200
0400
0800
1000
2000
4000
8000
8000
8000
8000
8000
8000
4000
3FFE
ENDCHAR
STARTCHAR 00C0
ENCODING 192
SWIDTH 500 0
DWIDTH 25 0
BBX 23 40 1 0
BITMAP
01FF80
000000
000000
000000
000000
001800
001C00
002400
002400
002400
004600
004200
004200
008300
008100
008100
018100
010080
010080
030080
0200C0
020040
020040
040040
040020
040020
080020
080020
0FFFF0
100010
100010
100008
200008
200008
200008
600004
400004
400004
C00006
800002
ENDCHAR
STARTCHAR 00C1
ENCODING 193
SWIDTH 500 0
DWIDTH 25 0
BBX 23 42 1 0
BITMAP
010080
010080
010080
018180
00FF00
000000
000000
001800
002800
002C00
002400
006400
004400
004600
004200
008200
008300
008100
010100
010100
010180
020080
020080
0200C0
060040
040040
040040
040020
080020
080020
0FFFF0
100010
100010
100018
200008
200008
200008
60000C
400004
400004
C00006
800002
ENDCHAR
STARTCHAR 00C2
ENCODING 194
SWIDTH 500 0
DWIDTH 25 0
BBX 23 39 1 0
BITMAP
008200
000000
000000
000000
001800
002800
002800
002C00
006400
004400
004600
00C600
008200
008200
018300
010100
010100
010180
020080
020080
0200C0
060040
040040
040040
0C0060
080020
080020
0FFFF0
100010
100010
100010
200008
200008
200008
60000C
400004
400004
C00006
800002
ENDCHAR
STARTCHAR 00C3
ENCODING 195
SWIDTH 400 0
DWIDTH 20 0
BBX 14 35 4 0
BITMAP
0010
0020
0060
0040
0080
0100
0000
0000
0000
0000
3FFC
4000
8000
8000
8000
8000
8000
8000
8000
8000
8000
8000
8000
8000
8000
8000
8000
8000
8000
8000
8000
8000
8000
4000
3FFC
ENDCHAR
STARTCHAR 00C4
ENCODING 196
SWIDTH 500 0
DWIDTH 25 0
BBX 23 42 1 0
BITMAP
010000
008000
004000
003000
001800
000000
000000
003800
002800
002800
002C00
004400
004400
004600
008200
008200
008200
018300
010100
010100
010180
020080
020080
0200C0
040040
040040
040040
0C0060
080020
080020
0FFFF0
100010
100010
100018
200018
200008
200008
60000C
400004
400004
C00006
800006
ENDCHAR
STARTCHAR 00C5
ENCODING 197
SWIDTH 500 0
DWIDTH 25 0
BBX 23 41 1 0
BITMAP
03C020
046020
081020
080C60
0803C0
000000
001800
002800
002800
002800
006C00
004400
004400
004600
008200
008200
008300
010100
010100
010100
020080
020080
020080
0600C0
040040
040040
0C0060
080020
080020
0FFFF0
100010
100010
100010
200008
200008
200008
60000C
400004
400004
C00006
800002
ENDCHAR
STARTCHAR 00C6
ENCODING 198
SWIDTH 800 0
DWIDTH 40 0
BBX 40 35 -2 0
BITMAP
000007FFFE
00000E0000
00000A0000
0000120000
0000320000
0000220000
0000620000
0000420000
0000820000
0001820000
0001020000
0002020000
0002020000
0004020000
000C020000
0008020000
001003FFF0
0010020000
0020020000
0060020000
0040020000
0080020000
0180020000
01FFFE0000
0200020000
0200020000
0400020000
0C00020000
0800020000
1800020000
1000020000
2000020000
6000020000
4000020000
C00003FFFF
ENDCHAR
STARTCHAR 00C7
ENCODING 199
SWIDTH 480 0
DWIDTH 24 0
BBX 17 41 5 1
BITMAP
00C000
012000
021000
040C00
000000
000000
3FFF80
400000
800000
800000
800000
800000
800000
800000
800000
800000
800000
800000
800000
800000
800000
800000
800000
800000
800000
800000
800000
800000
800000
800000
800000
800000
800000
800000
800000
800000
800000
800000
800000
400000
3FFF80
ENDCHAR
STARTCHAR 00C8
ENCODING 200
SWIDTH 480 0
DWIDTH 24 0
BBX 18 41 5 1
BITMAP
020000
010000
008000
004000
000000
000000
FFFF80
800000
800000
800000
800000
800000
800000
800000
800000
800000
800000
800000
800000
800000
800000
800000
FFFC00
800000
800000
800000
800000
800000
800000
800000
800000
800000
800000
800000
800000
800000
800000
800000
800000
800000
FFFFC0
ENDCHAR
STARTCHAR 00C9
ENCODING 201
SWIDTH 480 0
DWIDTH 24 0
BBX 17 41 5 1
BITMAP
002000
004000
008000
010000
000000
000000
FFFF00
800000
800000
800000
800000
800000
800000
800000
800000
800000
800000
800000
800000
800000
800000
800000
FFF800
800000
800000
800000
800000
800000
800000
800000
800000
800000
800000
800000
800000
800000
800000
800000
800000
800000
FFFF80
ENDCHAR
STARTCHAR 00CA
ENCODING 202
SWIDTH 480 0
DWIDTH 24 0
BBX 19 41 5 1
BITMAP
01C000
032000
061000
080800
000000
000000
FFFFC0
800000
800000
800000
800000
800000
800000
800000
800000
800000
800000
800000
800000
800000
800000
800000
FFFE00
800000
800000
800000
800000
800000
800000
800000
800000
800000
800000
800000
800000
800000
800000
800000
800000
800000
FFFFE0
ENDCHAR
STARTCHAR 00CB
ENCODING 203
SWIDTH 480 0
DWIDTH 24 0
BBX 17 39 5 0
BITMAP
043000
000000
000000
000000
FFFF00
800000
800000
800000
800000
800000
800000
800000
800000
800000
800000
800000
800000
800000
800000
800000
FFFC00
800000
800000
800000
800000
800000
800000
800000
800000
800000
800000
800000
800000
800000
800000
800000
800000
800000
FFFF80
ENDCHAR
STARTCHAR 00CC
ENCODING 204
SWIDTH 200 0
DWIDTH 10 0
BBX 5 41 0 1
BITMAP
C0
60
30
08
00
00
08
08
08
08
08
08
08
08
08
08
08
08
08
08
08
08
08
08
08
08
08
08
08
08
08
08
08
08
08
08
08
08
08
08
08
ENDCHAR
STARTCHAR 00CD
ENCODING 205
SWIDTH 200 0
DWIDTH 10 0
BBX 5 41 5 1
BITMAP
18
30
40
80
00
00
80
80
80
80
80
80
80
80
80
80
80
80
80
80
80
80
80
80
80
80
80
80
80
80
80
80
80
80
80
80
80
80
80
80
80
ENDCHAR
STARTCHAR 00CE
ENCODING 206
SWIDTH 200 0
DWIDTH 10 0
BBX 9 41 1 1
BITMAP
1C00
3600
4100
8080
0000
0000
0800
0800
0800
0800
0800
0800
0800
0800
0800
0800
0800
0800
0800
0800
0800
0800
0800
0800
0800
0800
0800
0800
0800
0800
0800
0800
0800
0800
0800
0800
0800
0800
0800
0800
0800
ENDCHAR
STARTCHAR 00CF
ENCODING 207
SWIDTH 200 0
DWIDTH 10 0
BBX 6 39 2 0
BITMAP
84
00
00
00
10
10
10
10
10
10
10
10
10
10
10
10
10
10
10
10
10
10
10
10
10
10
10
10
10
10
10
10
10
10
10
10
10
10
10
ENDCHAR
STARTCHAR 00D1
ENCODING 209
SWIDTH 560 0
DWIDTH 28 0
BBX 19 41 5 0
BITMAP
0F0080
118080
204080
203180
200F00
000000
000000
C000E0
C000E0
A000E0
A000E0
9000E0
9000E0
9000E0
8800E0
8800E0
8400E0
8400E0
8200E0
8200E0
8100E0
8100E0
8100E0
8080E0
8080E0
8040E0
8040E0
8020E0
8020E0
8020E0
8010E0
8010E0
8008E0
8008E0
8004E0
8004E0
8002E0
8002E0
8002E0
8001E0
8000E0
ENDCHAR
STARTCHAR 00D2
ENCODING 210
SWIDTH 560 0
DWIDTH 28 0
BBX 18 41 5 1
BITMAP
020000
010000
00C000
006000
000000
000000
3FFF00
400080
800040
800040
800040
800040
800040
800040
800040
800040
800040
800040
800040
800040
800040
800040
800040
800040
800040
800040
800040
800040
800040
800040
800040
800040
800040
800040
800040
800040
800040
800040
800040
400080
3FFF00
ENDCHAR
STARTCHAR 00D3
ENCODING 211
SWIDTH 560 0
DWIDTH 28 0
BBX 18 41 5 1
BITMAP
001800
003000
004000
008000
000000
000000
3FFF00
400080
800040
800040
800040
800040
800040
800040
800040
800040
800040
800040
800040
800040
800040
800040
800040
800040
800040
800040
800040
800040
800040
800040
800040
800040
800040
800040
800040
800040
800040
800040
800040
400080
3FFF00
ENDCHAR
STARTCHAR 00D4
ENCODING 212
SWIDTH 560 0
DWIDTH 28 0
BBX 18 41 5 1
BITMAP
01C000
026000
041000
080800
000000
000000
3FFF00
400080
800040
800040
800040
800040
800040
800040
800040
800040
800040
800040
800040
800040
800040
800040
800040
800040
800040
800040
800040
800040
800040
800040
800040
800040
800040
800040
800040
800040
800040
800040
800040
400080
3FFF00
ENDCHAR
STARTCHAR 00D5
ENCODING 213
SWIDTH 560 0
DWIDTH 28 0
BBX 18 41 5 0
BITMAP
1E0100
230100
408100
406300
401E00
000000
3FFF00
400380
8001C0
8001C0
8001C0
8001C0
8001C0
8001C0
8001C0
8001C0
8001C0
8001C0
8001C0
8001C0
8001C0
8001C0
8001C0
8001C0
8001C0
8001C0
8001C0
8001C0
8001C0
8001C0
8001C0
8001C0
8001C0
8001C0
8001C0
8001C0
8001C0
8001C0
8001C0
400380
3FFF00
ENDCHAR
STARTCHAR 00D6
ENCODING 214
SWIDTH 560 0
DWIDTH 28 0
BBX 18 39 5 0
BITMAP
041000
000000
000000
000000
3FFF00
400080
800040
800040
800040
800040
800040
800040
800040
800040
800040
800040
800040
800040
800040
800040
800040
800040
800040
800040
800040
800040
800040
800040
800040
800040
800040
800040
800040
800040
800040
800040
800040
400080
3FFF00
ENDCHAR
STARTCHAR 00D8
ENCODING 216
SWIDTH 560 0
DWIDTH 28 0
BBX 26 35 1 0
BITMAP
03FFF040
04000880
08000580
08000700
08000600
08000400
08000C00
08000C00
08001400
08003400
08006400
08004400
08008400
08018400
08010400
08020400
08040400
080C0400
08080400
08100400
08300400
08600400
08400400
08800400
09800400
0B000400
0A000400
0C000400
0C000400
08000400
18000400
38000400
68000400
44000800
83FFF000
ENDCHAR
STARTCHAR 00D9
ENCODING 217
SWIDTH 560 0
DWIDTH 28 0
BBX 18 41 5 1
BITMAP
020000
010000
00C000
006000
000000
000000
800040
800040
800040
800040
800040
800040
800040
800040
800040
800040
800040
800040
800040
800040
800040
800040
800040
800040
800040
800040
800040
800040
800040
800040
800040
800040
800040
800040
800040
800040
800040
800040
800040
400080
3FFF00
ENDCHAR
STARTCHAR 00DA
ENCODING 218
SWIDTH 560 0
DWIDTH 28 0
BBX 18 41 5 1
BITMAP
001800
002000
004000
008000
000000
000000
800040
800040
800040
800040
800040
800040
800040
800040
800040
800040
800040
800040
800040
800040
800040
800040
800040
800040
800040
800040
800040
800040
800040
800040
800040
800040
800040
800040
800040
800040
800040
800040
800040
400080
3FFF00
ENDCHAR
STARTCHAR 00DB
ENCODING 219
SWIDTH 560 0
DWIDTH 28 0
BBX 18 41 5 1
BITMAP
01C000
026000
041000
080800
000000
000000
800040
800040
800040
800040
800040
800040
800040
800040
800040
800040
800040
800040
800040
800040
800040
800040
800040
800040
800040
800040
800040
800040
800040
800040
800040
800040
800040
800040
800040
800040
800040
800040
800040
400080
3FFF00
ENDCHAR
STARTCHAR 00DC
ENCODING 220
SWIDTH 560 0
DWIDTH 28 0
BBX 18 39 5 0
BITMAP
041000
000000
000000
000000
800040
800040
800040
800040
800040
800040
800040
800040
800040
800040
800040
800040
800040
800040
800040
800040
800040
800040
800040
800040
800040
800040
800040
800040
800040
800040
800040
800040
800040
800040
800040
800040
800040
400080
3FFF00
ENDCHAR
STARTCHAR 00DD
ENCODING 221
SWIDTH 520 0
DWIDTH 26 0
BBX 25 41 1 1
BITMAP
00010000
00020000
000C0000
00000000
00000000
00000000
C0000180
40000100
60000300
30000600
10000400
18000C00
08001800
0C001000
04003000
06002000
03006000
0300C000
01808000
00818000
00C30000
00420000
00660000
00340000
003C0000
00180000
00180000
00180000
00180000
00180000
00180000
00180000
00180000
00180000
00180000
00180000
00180000
00180000
00180000
00180000
00180000
ENDCHAR
STARTCHAR 00DF
ENCODING 223
SWIDTH 440 0
DWIDTH 22 0
BBX 15 35 4 0
BITMAP
3FF8
4004
8002
8002
8002
8002
8002
8002
8004
8004
8008
8030
8060
8080
8080
8100
8100
8100
8100
8080
80C0
8060
8010
800C
8004
8002
8002
8002
8002
8002
8002
8002
8002
8004
81F8
ENDCHAR
STARTCHAR 00E0
ENCODING 224
SWIDTH 460 0
DWIDTH 23 0
BBX 15 32 4 0
BITMAP
3FF0
0000
0000
0000
0000
0000
0000
FFF8
0004
0002
0002
0002
0002
0002
0002
0002
0002
3FFE
4002
8002
8002
8002
8002
8002
8002
8002
8002
8002
8002
8002
4002
3FFE
ENDCHAR
STARTCHAR 00E1
ENCODING 225
SWIDTH 460 0
DWIDTH 23 0
BBX 15 35 4 0
BITMAP
2008
2008
2008
2010
1010
0FE0
0000
0000
0000
0000
FFF8
0004
0002
0002
0002
0002
0002
0002
0002
0002
3FFE
4002
8002
8002
8002
8002
8002
8002
8002
8002
8002
8002
8002
4002
3FFE
ENDCHAR
STARTCHAR 00E2
ENCODING 226
SWIDTH 460 0
DWIDTH 23 0
BBX 15 33 4 0
BITMAP
0820
0820
0000
0000
0000
0000
0000
0000
FFF8
0004
0002
0002
0002
0002
0002
0002
0002
0002
3FFE
4002
8002
8002
8002
8002
8002
8002
8002
8002
8002
8002
8002
4002
3FFE
ENDCHAR
STARTCHAR 00E3
ENCODING 227
SWIDTH 500 0
DWIDTH 25 0
BBX 23 42 1 0
BITMAP
000100
000200
000C00
001800
002000
000000
000000
003800
002800
002800
004800
004C00
004400
00C400
008600
008200
008200
010300
010100
010100
030180
020180
020080
060080
0400C0
040040
040040
0C0060
080020
080020
1FFFF0
100010
100010
100010
200018
200008
200008
60000C
400004
400004
C00006
800006
ENDCHAR
STARTCHAR 00E4
ENCODING 228
SWIDTH 460 0
DWIDTH 23 0
BBX 15 35 4 0
BITMAP
0800
0400
0600
0300
0100
0080
0000
0000
0000
0000
FFF8
0004
0002
0002
0002
0002
0002
0002
0002
0002
3FFE
4002
8002
8002
8002
8002
8002
8002
8002
8002
8002
8002
8002
4002
3FFE
ENDCHAR
STARTCHAR 00E5
ENCODING 229
SWIDTH 460 0
DWIDTH 23 0
BBX 15 35 4 0
BITMAP
3802
4402
C202
8102
8082
8044
8038
0000
0000
0000
FFF8
0004
0002
0002
0002
0002
0002
0002
0002
0002
3FFE
4002
8002
8002
8002
8002
8002
8002
8002
8002
8002
8002
8002
4002
3FFE
ENDCHAR
STARTCHAR 00E6
ENCODING 230
SWIDTH 720 0
DWIDTH 36 0
BBX 28 25 4 0
BITMAP
FFF8FFC0
00050020
00020010
00020010
00020010
00020010
00020010
00020010
00020010
00020010
3FFFFFF0
40020000
80020000
80020000
80020000
80020000
80020000
80020000
80020000
80020000
80020000
80020000
80020000
40050000
3FF8FFF0
ENDCHAR
STARTCHAR 00E7
ENCODING 231
SWIDTH 400 0
DWIDTH 20 0
BBX 14 35 4 0
BITMAP
0180
0140
0260
0420
0810
0808
0000
0000
0000
0000
3FFC
4000
8000
8000
8000
8000
8000
8000
8000
8000
8000
8000
8000
8000
8000
8000
8000
8000
8000
8000
8000
8000
8000
4000
3FFC
ENDCHAR
STARTCHAR 00E8
ENCODING 232
SWIDTH 460 0
DWIDTH 23 0
BBX 15 35 4 0
BITMAP
0800
0400
0600
0300
0100
0080
0000
0000
0000
0000
3FF8
4004
8002
8002
8002
8002
8002
8002
8002
8002
FFFE
8000
8000
8000
8000
8000
8000
8000
8000
8000
8000
8000
8000
4000
3FFE
ENDCHAR
STARTCHAR 00E9
ENCODING 233
SWIDTH 460 0
DWIDTH 23 0
BBX 15 35 4 0
BITMAP
0030
0060
00C0
0080
0100
0200
0000
0000
0000
0000
3FF8
4004
8002
8002
8002
8002
8002
8002
8002
8002
FFFE
8000
8000
8000
8000
8000
8000
8000
8000
8000
8000
8000
8000
4000
3FFE
ENDCHAR
STARTCHAR 00EA
ENCODING 234
SWIDTH 460 0
DWIDTH 23 0
BBX 14 35 4 0
BITMAP
0100
0280
0440
0820
1830
1018
0000
0000
0000
0000
3FF0
4008
8004
8004
8004
8004
8004
8004
8004
8004
FFFC
8000
8000
8000
8000
8000
8000
8000
8000
8000
8000
8000
8000
4000
3FFC
ENDCHAR
STARTCHAR 00EB
ENCODING 235
SWIDTH 460 0
DWIDTH 23 0
BBX 15 33 4 0
BITMAP
0820
0820
0000
0000
0000
0000
0000
0000
3FF8
4004
8002
8002
8002
8002
8002
8002
8002
8002
FFFE
8000
8000
8000
8000
8000
8000
8000
8000
8000
8000
8000
8000
4000
3FFE
ENDCHAR
STARTCHAR 00EC
ENCODING 236
SWIDTH 200 0
DWIDTH 10 0
BBX 6 35 -1 0
BITMAP
C0
40
20
10
08
04
00
00
00
00
0C
0C
0C
0C
0C
0C
0C
0C
0C
0C
0C
0C
0C
0C
0C
0C
0C
0C
0C
0C
0C
0C
0C
0C
0C
ENDCHAR
STARTCHAR 00ED
ENCODING 237
SWIDTH 200 0
DWIDTH 10 0
BBX 6 35 3 0
BITMAP
0C
18
10
20
40
80
00
00
00
00
40
40
40
40
40
40
40
40
40
40
40
40
40
40
40
40
40
40
40
40
40
40
40
40
40
ENDCHAR
STARTCHAR 00EE
ENCODING 238
SWIDTH 200 0
DWIDTH 10 0
BBX 9 35 0 0
BITMAP
0800
1400
2200
4100
C180
8080
0000
0000
0000
0000
0800
0800
0800
0800
0800
0800
0800
0800
0800
0800
0800
0800
0800
0800
0800
0800
0800
0800
0800
0800
0800
0800
0800
0800
0800
ENDCHAR
STARTCHAR 00EF
ENCODING 239
SWIDTH 200 0
DWIDTH 10 0
BBX 7 33 1 0
BITMAP
82
82
00
00
00
00
00
00
10
10
10
10
10
10
10
10
10
10
10
10
10
10
10
10
10
10
10
10
10
10
10
10
10
ENDCHAR
STARTCHAR 00F0
ENCODING 240
SWIDTH 520 0
DWIDTH 26 0
BBX 16 35 5 0
BITMAP
4000
2000
1000
1880
0F00
0600
0F00
1980
0080
0040
0020
0010
0008
0004
0002
0003
3FFF
4001
8001
8001
8001
8001
8001
8001
8001
8001
8001
8001
8001
8001
8001
8001
8001
4002
3FFC
ENDCHAR
STARTCHAR 00F1
ENCODING 241
SWIDTH 480 0
DWIDTH 24 0
BBX 15 35 4 0
BITMAP
3802
4402
C202
8102
8082
8044
8038
0000
0000
0000
FFF8
8004
8002
8002
8002
8002
8002
8002
8002
8002
8002
8002
8002
8002
8002
8002
8002
8002
8002
8002
8002
8002
8002
8002
8002
ENDCHAR
STARTCHAR 00F2
ENCODING 242
SWIDTH 480 0
DWIDTH 24 0
BBX 15 35 4 0
BITMAP
0C00
0400
0200
0100
0180
0080
0000
0000
0000
0000
3FF8
4004
8002
8002
8002
8002
8002
8002
8002
8002
8002
8002
8002
8002
8002
8002
8002
8002
8002
8002
8002
8002
8002
4004
3FF8
ENDCHAR
STARTCHAR 00F3
ENCODING 243
SWIDTH 480 0
DWIDTH 24 0
BBX 15 35 4 0
BITMAP
0030
0060
0040
0080
0100
0200
0000
0000
0000
0000
3FF8
4004
8002
8002
8002
8002
8002
8002
8002
8002
8002
8002
8002
8002
8002
8002
8002
8002
8002
8002
8002
8002
8002
4004
3FF8
ENDCHAR
STARTCHAR 00F4
ENCODING 244
SWIDTH 480 0
DWIDTH 24 0
BBX 15 35 4 0
BITMAP
0100
0280
0440
0820
1830
1010
0000
0000
0000
0000
3FF8
4004
8002
8002
8002
8002
8002
8002
8002
8002
8002
8002
8002
8002
8002
8002
8002
8002
8002
8002
8002
8002
8002
4004
3FF8
ENDCHAR
STARTCHAR 00F5
ENCODING 245
SWIDTH 480 0
DWIDTH 24 0
BBX 15 35 4 0
BITMAP
3802
4402
C202
8102
8082
8044
8038
0000
0000
0000
3FF8
4004
8002
8002
8002
8002
8002
8002
8002
8002
8002
8002
8002
8002
8002
8002
8002
8002
8002
8002
8002
8002
8002
4004
3FF8
ENDCHAR
STARTCHAR 00F6
ENCODING 246
SWIDTH 480 0
DWIDTH 24 0
BBX 15 33 4 0
BITMAP
0820
0820
0000
0000
0000
0000
0000
0000
3FF8
4004
8002
8002
8002
8002
8002
8002
8002
8002
8002
8002
8002
8002
8002
8002
8002
8002
8002
8002
8002
8002
8002
4004
3FF8
ENDCHAR
STARTCHAR 00F7
ENCODING 247
SWIDTH 440 0
DWIDTH 22 0
BBX 17 18 2 6
BITMAP
008000
008000
000000
000000
000000
000000
000000
000000
000000
FFFF80
000000
000000
000000
000000
000000
000000
008000
008000
ENDCHAR
STARTCHAR 00F8
ENCODING 248
SWIDTH 480 0
DWIDTH 24 0
BBX 19 25 2 0
BITMAP
0FFE20
100160
2000C0
200080
200180
200380
200280
200480
200880
201080
201080
202080
204080
208080
218080
210080
220080
240080
280080
380080
300080
200080
600080
D00100
8FFE00
ENDCHAR
STARTCHAR 00F9
ENCODING 249
SWIDTH 480 0
DWIDTH 24 0
BBX 15 35 4 0
BITMAP
0800
0400
0600
0300
0100
0080
0000
0000
0000
0000
8002
8002
8002
8002
8002
8002
8002
8002
8002
8002
8002
8002
8002
8002
8002
8002
8002
8002
8002
8002
8002
8002
8002
4002
3FFE
ENDCHAR
STARTCHAR 00FA
ENCODING 250
SWIDTH 480 0
DWIDTH 24 0
BBX 15 35 4 0
BITMAP
0020
0060
00C0
0080
0100
0200
0000
0000
0000
0000
8002
8002
8002
8002
8002
8002
8002
8002
8002
8002
8002
8002
8002
8002
8002
8002
8002
8002
8002
8002
8002
8002
8002
4002
3FFE
ENDCHAR
STARTCHAR 00FB
ENCODING 251
SWIDTH 480 0
DWIDTH 24 0
BBX 15 35 4 0
BITMAP
0100
0280
0440
0820
1830
1010
0000
0000
0000
0000
8002
8002
8002
8002
8002
8002
8002
8002
8002
8002
8002
8002
8002
8002
8002
8002
8002
8002
8002
8002
8002
8002
8002
4002
3FFE
ENDCHAR
STARTCHAR 00FC
ENCODING 252
SWIDTH 480 0
DWIDTH 24 0
BBX 15 33 4 0
BITMAP
0820
0820
0000
0000
0000
0000
0000
0000
8002
8002
8002
8002
8002
8002
8002
8002
8002
8002
8002
8002
8002
8002
8002
8002
8002
8002
8002
8002
8002
8002
8002
4002
3FFE
ENDCHAR
STARTCHAR 00FD
ENCODING 253
SWIDTH 400 0
DWIDTH 20 0
BBX 18 45 1 -10
BITMAP
00C000
010000
030000
070000
1F0000
7F0000
000000
000000
000000
000000
8001C0
8001C0
800380
800780
800780
800F00
800F00
801F00
803E00
803E00
407E00
40FC00
40FC00
41FC00
41F800
43F800
47F800
67F000
6FF000
6FF000
7FE000
5FE000
5FE000
1FC000
1FC000
FFC000
7F8000
7F8000
3F8000
3F8000
1F0000
0F0000
0F0000
060000
060000
ENDCHAR
STARTCHAR 00FF
ENCODING 255
SWIDTH 400 0
DWIDTH 20 0
BBX 18 43 1 -10
BITMAP
021000
021000
000000
000000
000000
000000
000000
000000
C000C0
400080
400080
600180
200100
200100
300300
100300
100200
100200
080600
080400
080400
040C00
040800
040800
021800
021000
021000
013000
012000
012000
00E000
00C000
00C000
00C000
008000
008000
008000
010000
010000
010000
030000
020000
020000
ENDCHAR
STARTCHAR 0100
ENCODING 256
SWIDTH 500 0
DWIDTH 25 0
BBX 23 45 1 -9
BITMAP
003000
003800
002800
004800
004C00
004400
00C400
008400
008200
008200
010200
010300
010100
030100
020180
020080
020080
040080
0400C0
040040
0C0040
080060
080020
0FFFE0
100030
100010
100010
300010
200018
200008
200008
60000C
400004
400004
C00006
800006
00000C
000030
0000C0
000100
000100
000100
000100
000180
00007E
ENDCHAR
STARTCHAR 0101
ENCODING 257
SWIDTH 460 0
DWIDTH 23 0
BBX 15 35 4 -10
BITMAP
FFF8
0004
0002
0002
0002
0002
0002
0002
0002
0002
3FFE
4002
8002
8002
8002
8002
8002
8002
8002
8002
8002
8002
8002
8002
4002
3FFE
000C
0030
0040
0080
0080
0080
0080
0080
007E
ENDCHAR
STARTCHAR 0102
ENCODING 258
SWIDTH 500 0
DWIDTH 25 0
BBX 23 42 1 0
BITMAP
001000
002800
004400
008200
010100
000000
000000
001800
002800
002C00
002400
004400
004400
004600
00C200
008200
008300
008100
010100
010100
010080
020080
020080
0200C0
060040
040040
040040
0C0020
080020
080020
0FFFF0
100010
100010
100018
200008
200008
200008
60000C
400004
400004
C00006
800002
ENDCHAR
STARTCHAR 0103
ENCODING 259
SWIDTH 460 0
DWIDTH 23 0
BBX 15 35 4 0
BITMAP
0100
0280
0440
0820
1830
1010
0000
0000
0000
0000
FFF8
0004
0002
0002
0002
0002
0002
0002
0002
0002
3FFE
4002
8002
8002
8002
8002
8002
8002
8002
8002
8002
8002
8002
4002
3FFE
ENDCHAR
STARTCHAR 0104
ENCODING 260
SWIDTH 500 0
DWIDTH 25 0
BBX 23 42 1 0
BITMAP
00FE00
030180
020080
020080
030180
01FF00
000000
003800
002800
002800
002C00
004400
004400
004600
00C200
008200
008200
018100
010100
010100
010180
020080
020080
0200C0
060040
040040
040040
0C0020
080020
080020
1FFFF0
100010
100010
100010
200008
200008
200008
600004
400004
400004
C00006
800002
ENDCHAR
STARTCHAR 0105
ENCODING 261
SWIDTH 460 0
DWIDTH 23 0
BBX 15 36 4 0
BITMAP
1FE0
3030
2010
2010
2010
2010
3030
1FE0
0000
0000
0000
FFF8
0004
0002
0002
0002
0002
0002
0002
0002
0002
3FFE
4002
8002
8002
8002
8002
8002
8002
8002
8002
8002
8002
8002
4002
3FFE
ENDCHAR
STARTCHAR 0106
ENCODING 262
SWIDTH 480 0
DWIDTH 24 0
BBX 16 41 5 1
BITMAP
0404
0308
0190
00E0
0000
0000
3FFF
4000
8000
8000
8000
8000
8000
8000
8000
8000
8000
8000
8000
8000
8000
8000
8000
8000
8000
8000
8000
8000
8000
8000
8000
8000
8000
8000
8000
8000
8000
8000
8000
4000
3FFF
ENDCHAR
STARTCHAR 0107
ENCODING 263
SWIDTH 400 0
DWIDTH 20 0
BBX 14 35 4 0
BITMAP
1004
0808
0410
0220
0140
01C0
0000
0000
0000
0000
3FFC
4000
8000
8000
8000
8000
8000
8000
8000
8000
8000
8000
8000
8000
8000
8000
8000
8000
8000
8000
8000
8000
8000
4000
3FFC
ENDCHAR
STARTCHAR 0108
ENCODING 264
SWIDTH 480 0
DWIDTH 24 0
BBX 17 39 5 0
BITMAP
008000
000000
000000
000000
3FFF80
400000
800000
800000
800000
800000
800000
800000
800000
800000
800000
800000
800000
800000
800000
800000
800000
800000
800000
800000
800000
800000
800000
800000
800000
800000
800000
800000
800000
800000
800000
800000
800000
400000
3FFF80
ENDCHAR
STARTCHAR 0109
ENCODING 265
SWIDTH 400 0
DWIDTH 20 0
BBX 14 31 4 0
BITMAP
0100
0100
0000
0000
0000
0000
3FFC
4000
8000
8000
8000
8000
8000
8000
8000
8000
8000
8000
8000
8000
8000
8000
8000
8000
8000
8000
8000
8000
8000
4000
3FFC
ENDCHAR
STARTCHAR 010A
ENCODING 266
SWIDTH 560 0
DWIDTH 28 0
BBX 18 41 5 1
BITMAP
0C0800
061000
012000
00C000
000000
000000
FFFF00
800080
800040
800040
800040
800040
800040
800040
800040
800040
800040
800040
800040
800040
800040
800040
800040
800040
800040
800040
800040
800040
800040
800040
800040
800040
800040
800040
800040
800040
800040
800040
800040
800080
FFFF00
ENDCHAR
STARTCHAR 010B
ENCODING 267
SWIDTH 480 0
DWIDTH 24 0
BBX 17 41 5 1
BITMAP
000800
001000
006000
00C000
000000
000000
3FFF80
400000
800000
800000
800000
800000
800000
800000
800000
800000
800000
800000
800000
800000
800000
800000
800000
800000
800000
800000
800000
800000
800000
800000
800000
800000
800000
800000
800000
800000
800000
800000
800000
400000
3FFF80
ENDCHAR
STARTCHAR 010C
ENCODING 268
SWIDTH 480 0
DWIDTH 24 0
BBX 17 45 5 -10
BITMAP
3FFF80
400000
800000
800000
800000
800000
800000
800000
800000
800000
800000
800000
800000
800000
800000
800000
800000
800000
800000
800000
800000
800000
800000
800000
800000
800000
800000
800000
800000
800000
800000
800000
800000
400000
3FFF80
004000
008000
00F800
000C00
000400
000400
000400
000400
000C00
03F800
ENDCHAR
STARTCHAR 010D
ENCODING 269
SWIDTH 400 0
DWIDTH 20 0
BBX 14 35 4 -10
BITMAP
3FFC
4000
8000
8000
8000
8000
8000
8000
8000
8000
8000
8000
8000
8000
8000
8000
8000
8000
8000
8000
8000
8000
8000
4000
3FFC
0100
0200
03E0
0030
0010
0010
0010
0010
0030
0FC0
ENDCHAR
STARTCHAR 010E
ENCODING 270
SWIDTH 560 0
DWIDTH 28 0
BBX 18 40 5 0
BITMAP
1FF800
000000
000000
000000
000000
FFFF00
800080
800040
800040
800040
800040
800040
800040
800040
800040
800040
800040
800040
800040
800040
800040
800040
800040
800040
800040
800040
800040
800040
800040
800040
800040
800040
800040
800040
800040
800040
800040
800040
800080
FFFF00
ENDCHAR
STARTCHAR 010F
ENCODING 271
SWIDTH 480 0
DWIDTH 24 0
BBX 18 35 4 1
BITMAP
000200
000200
000200
00FFC0
000200
000200
000200
000200
000200
000200
3FFE00
400200
800200
800200
800200
800200
800200
800200
800200
800200
800200
800200
800200
800200
800200
800200
800200
800200
800200
800200
800200
800200
800200
400200
3FFE00
ENDCHAR
STARTCHAR 0111
ENCODING 273
SWIDTH 480 0
DWIDTH 24 0
BBX 15 35 4 1
BITMAP
0002
0002
0002
3FF2
0002
0002
0002
0002
0002
0002
3FFE
4002
8002
8002
8002
8002
8002
8002
8002
8002
8002
8002
8002
8002
8002
8002
8002
8002
8002
8002
8002
8002
8002
4002
3FFE
ENDCHAR
STARTCHAR 0112
ENCODING 274
SWIDTH 480 0
DWIDTH 24 0
BBX 18 40 5 0
BITMAP
0FFC00
000000
000000
000000
000000
FFFF80
800000
800000
800000
800000
800000
800000
800000
800000
800000
800000
800000
800000
800000
800000
800000
FFFC00
800000
800000
800000
800000
800000
800000
800000
800000
800000
800000
800000
800000
800000
800000
800000
800000
800000
FFFFC0
ENDCHAR
STARTCHAR 0113
ENCODING 275
SWIDTH 460 0
DWIDTH 23 0
BBX 15 32 4 0
BITMAP
1FF8
0000
0000
0000
0000
0000
0000
3FF8
4004
8002
8002
8002
8002
8002
8002
8002
8002
FFFE
8000
8000
8000
8000
8000
8000
8000
8000
8000
8000
8000
8000
4000
3FF8
ENDCHAR
STARTCHAR 0114
ENCODING 276
SWIDTH 480 0
DWIDTH 24 0
BBX 18 42 5 0
BITMAP
100000
100800
100800
180800
0FF000
000000
000000
FFFF80
800000
800000
800000
800000
800000
800000
800000
800000
800000
800000
800000
800000
800000
800000
800000
FFFC00
800000
800000
800000
800000
800000
800000
800000
800000
800000
800000
800000
800000
800000
800000
800000
800000
800000
FFFFC0
ENDCHAR
STARTCHAR 0115
ENCODING 277
SWIDTH 460 0
DWIDTH 23 0
BBX 15 35 4 0
BITMAP
2008
2008
2008
2010
1010
0FE0
0000
0000
0000
0000
3FF8
4004
8002
8002
8002
8002
8002
8002
8002
8002
FFFE
8000
8000
8000
8000
8000
8000
8000
8000
8000
8000
8000
8000
4000
3FFE
ENDCHAR
STARTCHAR 0116
ENCODING 278
SWIDTH 480 0
DWIDTH 24 0
BBX 17 39 5 0
BITMAP
008000
000000
000000
000000
FFFF00
800000
800000
800000
800000
800000
800000
800000
800000
800000
800000
800000
800000
800000
800000
800000
FFFC00
800000
800000
800000
800000
800000
800000
800000
800000
800000
800000
800000
800000
800000
800000
800000
800000
800000
FFFF80
ENDCHAR
STARTCHAR 0117
ENCODING 279
SWIDTH 460 0
DWIDTH 23 0
BBX 15 31 4 0
BITMAP
0100
0100
0000
0000
0000
0000
3FF8
4004
8002
8002
8002
8002
8002
8002
8002
8002
FFFE
8000
8000
8000
8000
8000
8000
8000
8000
8000
8000
8000
8000
4000
3FFE
ENDCHAR
STARTCHAR 0118
ENCODING 280
SWIDTH 480 0
DWIDTH 24 0
BBX 17 45 5 -10
BITMAP
FFFF00
800000
800000
800000
800000
800000
800000
800000
800000
800000
800000
800000
800000
800000
800000
800000
FFF800
800000
800000
800000
800000
800000
800000
800000
800000
800000
800000
800000
800000
800000
800000
800000
800000
800000
800000
FFFF80
000400
003800
004000
008000
008000
008000
008000
00C000
007E00
ENDCHAR
STARTCHAR 0119
ENCODING 281
SWIDTH 460 0
DWIDTH 23 0
BBX 15 35 4 -10
BITMAP
3FF8
4004
8002
8002
8002
8002
8002
8002
8002
8002
FFFE
8000
8000
8000
8000
8000
8000
8000
8000
8000
8000
8000
8000
8000
4000
3FFE
0008
00F0
0300
0400
0400
0400
0400
0200
01FE
ENDCHAR
STARTCHAR 011A
ENCODING 282
SWIDTH 480 0
DWIDTH 24 0
BBX 18 41 5 1
BITMAP
080800
041000
026000
01C000
000000
000000
FFFF80
800000
800000
800000
800000
800000
800000
800000
800000
800000
800000
800000
800000
800000
800000
800000
FFFC00
800000
800000
800000
800000
800000
800000
800000
800000
800000
800000
800000
800000
800000
800000
800000
800000
800000
FFFFC0
ENDCHAR
STARTCHAR 011B
ENCODING 283
SWIDTH 460 0
DWIDTH 23 0
BBX 14 35 4 0
BITMAP
3008
1010
0820
0440
02C0
0380
0000
0000
0000
0000
3FF0
4008
8004
8004
8004
8004
8004
8004
8004
8004
FFFC
8000
8000
8000
8000
8000
8000
8000
8000
8000
8000
8000
8000
4000
3FFC
ENDCHAR
STARTCHAR 011C
ENCODING 284
SWIDTH 560 0
DWIDTH 28 0
BBX 18 41 5 1
BITMAP
01C000
032000
061000
080C00
000000
000000
3FFFC0
400000
800000
800000
800000
800000
800000
800000
800000
800000
800000
800000
800000
800000
800000
800000
80FFC0
800040
800040
800040
800040
800040
800040
800040
800040
800040
800040
800040
800040
800040
800040
800040
800040
400080
3FFF00
ENDCHAR
STARTCHAR 011D
ENCODING 285
SWIDTH 480 0
DWIDTH 24 0
BBX 15 45 4 -10
BITMAP
0180
01C0
0260
0420
0810
1008
0000
0000
0000
0000
3FFE
4002
8002
8002
8002
8002
8002
8002
8002
8002
8002
8002
8002
8002
8002
8002
8002
8002
8002
8002
8002
8002
8002
4002
3FFE
0002
0002
0002
0002
0002
0002
0002
0002
0004
FFF8
ENDCHAR
STARTCHAR 011E
ENCODING 286
SWIDTH 560 0
DWIDTH 28 0
BBX 18 42 5 0
BITMAP
080400
080400
080400
0C0C00
07F800
000000
000000
3FFFC0
400000
800000
800000
800000
800000
800000
800000
800000
800000
800000
800000
800000
800000
800000
800000
807FC0
800040
800040
800040
800040
800040
800040
800040
800040
800040
800040
800040
800040
800040
800040
800040
800040
400080
3FFF00
ENDCHAR
STARTCHAR 011F
ENCODING 287
SWIDTH 480 0
DWIDTH 24 0
BBX 15 45 4 -10
BITMAP
1008
1008
1008
1008
0818
07E0
0000
0000
0000
0000
3FFE
4002
8002
8002
8002
8002
8002
8002
8002
8002
8002
8002
8002
8002
8002
8002
8002
8002
8002
8002
8002
8002
8002
4002
3FFE
0002
0002
0002
0002
0002
0002
0002
0002
0004
FFF8
ENDCHAR
STARTCHAR 0120
ENCODING 288
SWIDTH 560 0
DWIDTH 28 0
BBX 18 39 5 0
BITMAP
008000
000000
000000
000000
3FFFC0
400000
800000
800000
800000
800000
800000
800000
800000
800000
800000
800000
800000
800000
800000
800000
80FFC0
800040
800040
800040
800040
800040
800040
800040
800040
800040
800040
800040
800040
800040
800040
800040
800040
400080
3FFF00
ENDCHAR
STARTCHAR 0121
ENCODING 289
SWIDTH 480 0
DWIDTH 24 0
BBX 15 41 4 -10
BITMAP
0100
0100
0000
0000
0000
0000
3FFE
4002
8002
8002
8002
8002
8002
8002
8002
8002
8002
8002
8002
8002
8002
8002
8002
8002
8002
8002
8002
8002
8002
4002
7FFE
0002
0002
0002
0002
0002
0002
0002
0002
0004
FFF8
ENDCHAR
STARTCHAR 0122
ENCODING 290
SWIDTH 560 0
DWIDTH 28 0
BBX 18 45 5 -10
BITMAP
3FFFC0
400000
800000
800000
800000
800000
800000
800000
800000
800000
800000
800000
800000
800000
800000
800000
803FC0
800040
800040
800040
800040
800040
800040
800040
800040
800040
800040
800040
800040
800040
800040
800040
800040
400080
3FFF00
000000
000000
002000
002000
002000
002000
004000
004000
00C000
008000
ENDCHAR
STARTCHAR 0123
ENCODING 291
SWIDTH 480 0
DWIDTH 24 0
BBX 15 45 4 -9
BITMAP
0010
0020
0020
0020
0040
0040
0040
0040
0000
0000
3FFE
4002
8002
8002
8002
8002
8002
8002
8002
8002
8002
8002
8002
8002
8002
8002
8002
8002
8002
8002
8002
8002
8002
4002
3FFE
0002
0002
0002
0002
0002
0002
0002
0002
0004
FFF8
ENDCHAR
STARTCHAR 0124
ENCODING 292
SWIDTH 560 0
DWIDTH 28 0
BBX 18 41 5 1
BITMAP
01C000
036000
041000
080800
000000
000000
800040
800040
800040
800040
800040
800040
800040
800040
800040
800040
800040
800040
800040
800040
800040
800040
FFFFC0
800040
800040
800040
800040
800040
800040
800040
800040
800040
800040
800040
800040
800040
800040
800040
800040
800040
800040
ENDCHAR
STARTCHAR 0125
ENCODING 293
SWIDTH 480 0
DWIDTH 24 0
BBX 17 41 3 1
BITMAP
0C0000
130000
218000
C04000
000000
000000
400000
400000
400000
400000
400000
400000
400000
400000
400000
400000
7FFE00
400100
400080
400080
400080
400080
400080
400080
400080
400080
400080
400080
400080
400080
400080
400080
400080
400080
400080
400080
400080
400080
400080
400080
400080
ENDCHAR
STARTCHAR 0126
ENCODING 294
SWIDTH 560 0
DWIDTH 28 0
BBX 24 35 2 1
BITMAP
100008
100008
100008
FFFFFF
100008
100008
100008
100008
100008
100008
100008
100008
100008
100008
100008
100008
1FFFF8
100008
100008
100008
100008
100008
100008
100008
100008
100008
100008
100008
100008
100008
100008
100008
100008
100008
100008
ENDCHAR
STARTCHAR 0127
ENCODING 295
SWIDTH 480 0
DWIDTH 24 0
BBX 18 35 1 1
BITMAP
100000
100000
100000
FFC000
100000
100000
100000
100000
100000
100000
1FFF00
100080
100040
100040
100040
100040
100040
100040
100040
100040
100040
100040
100040
100040
100040
100040
100040
100040
100040
100040
100040
100040
100040
100040
100040
ENDCHAR
STARTCHAR 0128
ENCODING 296
SWIDTH 200 0
DWIDTH 10 0
BBX 15 41 -2 0
BITMAP
3C02
4602
8182
80C6
803C
0000
0000
0100
0100
0100
0100
0100
0100
0100
0100
0100
0100
0100
0100
0100
0100
0100
0100
0100
0100
0100
0100
0100
0100
0100
0100
0100
0100
0100
0100
0100
0100
0100
0100
0100
0100
ENDCHAR
STARTCHAR 0129
ENCODING 297
SWIDTH 200 0
DWIDTH 10 0
BBX 15 35 -3 0
BITMAP
3802
4402
C202
8102
8082
8044
8038
0000
0000
0000
0100
0100
0100
0100
0100
0100
0100
0100
0100
0100
0100
0100
0100
0100
0100
0100
0100
0100
0100
0100
0100
0100
0100
0100
0100
ENDCHAR
STARTCHAR 012A
ENCODING 298
SWIDTH 200 0
DWIDTH 10 0
BBX 10 40 0 0
BITMAP
FFC0
0000
0000
0000
0000
0800
0800
0800
0800
0800
0800
0800
0800
0800
0800
0800
0800
0800
0800
0800
0800
0800
0800
0800
0800
0800
0800
0800
0800
0800
0800
0800
0800
0800
0800
0800
0800
0800
0800
0800
ENDCHAR
STARTCHAR 012B
ENCODING 299
SWIDTH 200 0
DWIDTH 10 0
BBX 10 32 0 0
BITMAP
FFC0
0000
0000
0000
0000
0000
0000
0800
0800
0800
0800
0800
0800
0800
0800
0800
0800
0800
0800
0800
0800
0800
0800
0800
0800
0800
0800
0800
0800
0800
0800
0800
ENDCHAR
STARTCHAR 012C
ENCODING 300
SWIDTH 200 0
DWIDTH 10 0
BBX 10 42 0 0
BITMAP
8040
8040
8040
C0C0
7F80
0000
0000
0400
0400
0400
0400
0400
0400
0400
0400
0400
0400
0400
0400
0400
0400
0400
0400
0400
0400
0400
0400
0400
0400
0400
0400
0400
0400
0400
0400
0400
0400
0400
0400
0400
0400
0400
ENDCHAR
STARTCHAR 012D
ENCODING 301
SWIDTH 200 0
DWIDTH 10 0
BBX 10 35 0 0
BITMAP
8040
8040
8040
8040
4080
3F00
0000
0000
0000
0000
0800
0800
0800
0800
0800
0800
0800
0800
0800
0800
0800
0800
0800
0800
0800
0800
0800
0800
0800
0800
0800
0800
0800
0800
0800
ENDCHAR
STARTCHAR 012E
ENCODING 302
SWIDTH 200 0
DWIDTH 10 0
BBX 7 45 1 -10
BITMAP
08
08
08
08
08
08
08
08
08
08
08
08
08
08
08
08
08
08
08
08
08
08
08
08
08
08
08
08
08
08
08
08
08
08
08
10
20
40
80
80
80
80
80
C0
7E
ENDCHAR
STARTCHAR 012F
ENCODING 303
SWIDTH 200 0
DWIDTH 10 0
BBX 7 41 0 -10
BITMAP
08
08
00
00
00
00
08
08
08
08
08
08
08
08
08
08
08
08
08
08
08
08
08
08
08
08
08
08
08
08
08
10
20
40
40
80
80
80
80
40
3E
ENDCHAR
STARTCHAR 0130
ENCODING 304
SWIDTH 200 0
DWIDTH 10 0
BBX 1 39 5 0
BITMAP
80
00
00
00
80
80
80
80
80
80
80
80
80
80
80
80
80
80
80
80
80
80
80
80
80
80
80
80
80
80
80
80
80
80
80
80
80
80
80
ENDCHAR
STARTCHAR 0131
ENCODING 305
SWIDTH 200 0
DWIDTH 10 0
BBX 1 25 4 0
BITMAP
80
80
80
80
80
80
80
80
80
80
80
80
80
80
80
80
80
80
80
80
80
80
80
80
80
ENDCHAR
STARTCHAR 0132
ENCODING 306
SWIDTH 460 0
DWIDTH 23 0
BBX 14 35 5 1
BITMAP
8004
8004
8004
8004
8004
8004
8004
8004
8004
8004
8004
8004
8004
8004
8004
8004
8004
8004
8004
8004
8004
8004
8004
8004
8004
8004
8004
8004
8004
8004
8004
8004
8004
8008
9FF0
ENDCHAR
STARTCHAR 0133
ENCODING 307
SWIDTH 380 0
DWIDTH 19 0
BBX 10 41 4 -10
BITMAP
8040
8040
0000
0000
0000
0000
8040
8040
8040
8040
8040
8040
8040
8040
8040
8040
8040
8040
8040
8040
8040
8040
8040
8040
8040
8040
8040
8040
8040
8040
8040
0040
0040
0040
0040
0040
0040
0040
0080
0080
0080
ENDCHAR
STARTCHAR 0134
ENCODING 308
SWIDTH 320 0
DWIDTH 16 0
BBX 15 41 1 1
BITMAP
0060
0098
010C
0602
0000
0000
0020
0020
0020
0020
0020
0020
0020
0020
0020
0020
0020
0020
0020
0020
0020
0020
0020
0020
0020
0020
0020
0020
0020
0020
0020
0020
0020
0020
0020
0020
0020
0020
0020
0040
FF80
ENDCHAR
STARTCHAR 0135
ENCODING 309
SWIDTH 200 0
DWIDTH 10 0
BBX 10 45 0 -10
BITMAP
0400
0A00
1300
2180
4080
C040
0000
0000
0000
0000
0400
0400
0400
0400
0400
0400
0400
0400
0400
0400
0400
0400
0400
0400
0400
0400
0400
0400
0400
0400
0400
0400
0400
0400
0400
0400
0400
0400
0400
0400
0C00
0800
0800
0800
1800
ENDCHAR
STARTCHAR 0136
ENCODING 310
SWIDTH 500 0
DWIDTH 25 0
BBX 18 45 5 -10
BITMAP
8000C0
800080
800180
800100
800300
800200
800600
800400
800800
800800
801000
801000
802000
802000
804000
80C000
FF0000
80C000
804000
802000
802000
801000
801000
800800
800800
800400
800400
800600
800200
800300
800100
800180
800080
8000C0
800040
000000
000000
008000
008000
008000
018000
010000
030000
020000
020000
ENDCHAR
STARTCHAR 0137
ENCODING 311
SWIDTH 440 0
DWIDTH 22 0
BBX 15 45 4 -10
BITMAP
8000
8000
8000
8000
8000
8000
8000
8000
8000
8000
8004
8004
8008
8008
8010
8010
8020
8060
8040
80C0
8080
FF00
8080
80C0
8040
8060
8020
8030
8010
8018
8008
8008
8004
8004
8002
0000
0000
0300
0300
0300
0200
0200
0600
0400
0C00
ENDCHAR
STARTCHAR 0139
ENCODING 313
SWIDTH 460 0
DWIDTH 23 0
BBX 18 41 5 1
BITMAP
0C0000
100000
200000
400000
000000
000000
800000
800000
800000
800000
800000
800000
800000
800000
800000
800000
800000
800000
800000
800000
800000
800000
800000
800000
800000
800000
800000
800000
800000
800000
800000
800000
800000
800000
800000
800000
800000
800000
800000
800000
FFFFC0
ENDCHAR
STARTCHAR 013A
ENCODING 314
SWIDTH 200 0
DWIDTH 10 0
BBX 5 41 4 1
BITMAP
08
10
20
C0
00
00
80
80
80
80
80
80
80
80
80
80
80
80
80
80
80
80
80
80
80
80
80
80
80
80
80
80
80
80
80
80
80
80
80
80
80
ENDCHAR
STARTCHAR 013B
ENCODING 315
SWIDTH 460 0
DWIDTH 23 0
BBX 18 45 5 -9
BITMAP
800000
800000
800000
800000
800000
800000
800000
800000
800000
800000
800000
800000
800000
800000
800000
800000
800000
800000
800000
800000
800000
800000
800000
800000
800000
800000
800000
800000
800000
800000
800000
800000
800000
800000
FFFFC0
000000
000000
004000
004000
004000
004000
008000
008000
018000
010000
ENDCHAR
STARTCHAR 013C
ENCODING 316
SWIDTH 200 0
DWIDTH 10 0
BBX 3 45 2 -10
BITMAP
20
20
20
20
20
20
20
20
20
20
20
20
20
20
20
20
20
20
20
20
20
20
20
20
20
20
20
20
20
20
20
20
20
20
20
00
00
20
20
20
20
40
40
C0
80
ENDCHAR
STARTCHAR 013D
ENCODING 317
SWIDTH 460 0
DWIDTH 23 0
BBX 18 35 5 0
BITMAP
820000
820000
820000
820000
820000
820000
820000
820000
800000
800000
800000
800000
800000
800000
800000
800000
800000
800000
800000
800000
800000
800000
800000
800000
800000
800000
800000
800000
800000
800000
800000
800000
800000
800000
FFFFC0
ENDCHAR
STARTCHAR 013E
ENCODING 318
SWIDTH 200 0
DWIDTH 10 0
BBX 5 35 4 0
BITMAP
88
88
88
88
88
88
88
88
80
80
80
80
80
80
80
80
80
80
80
80
80
80
80
80
80
80
80
80
80
80
80
80
80
80
80
ENDCHAR
STARTCHAR 013F
ENCODING 319
SWIDTH 460 0
DWIDTH 23 0
BBX 19 35 5 1
BITMAP
800000
800000
800000
800000
800000
800000
800000
800000
800000
800000
800000
800000
800000
800000
800000
830000
830000
800000
800000
800000
800000
800000
800000
800000
800000
800000
800000
800000
800000
800000
800000
800000
800000
800000
FFFFE0
ENDCHAR
STARTCHAR 0140
ENCODING 320
SWIDTH 200 0
DWIDTH 10 0
BBX 6 35 4 0
BITMAP
80
80
80
80
80
80
80
80
80
80
80
80
80
80
80
8C
8C
80
80
80
80
80
80
80
80
80
80
80
80
80
80
80
80
80
80
ENDCHAR
STARTCHAR 0141
ENCODING 321
SWIDTH 460 0
DWIDTH 23 0
BBX 22 35 1 1
BITMAP
180000
180000
180000
180000
180000
180000
180000
180000
180000
180200
180600
180C00
181000
182000
184000
188000
1B0000
1E0000
1C0000
180000
380000
580000
980000
180000
180000
180000
180000
180000
180000
180000
180000
180000
180000
180000
1FFFFC
ENDCHAR
STARTCHAR 0142
ENCODING 322
SWIDTH 200 0
DWIDTH 10 0
BBX 7 35 1 0
BITMAP
10
10
10
10
10
10
10
10
10
10
10
10
12
12
14
18
18
10
30
30
50
90
90
10
10
10
10
10
10
10
10
10
10
10
10
ENDCHAR
STARTCHAR 0143
ENCODING 323
SWIDTH 560 0
DWIDTH 28 0
BBX 19 41 5 0
BITMAP
000C00
001800
003000
004000
008000
000000
C00020
C00020
E00020
A00020
B00020
900020
980020
880020
8C0020
840020
860020
820020
830020
810020
818020
808020
80C020
804020
806020
802020
803020
801020
801820
800820
800820
800420
800420
800220
800220
800120
800120
8000A0
8000A0
800060
800060
ENDCHAR
STARTCHAR 0144
ENCODING 324
SWIDTH 480 0
DWIDTH 24 0
BBX 15 35 4 0
BITMAP
0030
0060
00C0
0080
0100
0200
0000
0000
0000
0000
FFF8
8004
8002
8002
8002
8002
8002
8002
8002
8002
8002
8002
8002
8002
8002
8002
8002
8002
8002
8002
8002
8002
8002
8002
8002
ENDCHAR
STARTCHAR 0145
ENCODING 325
SWIDTH 560 0
DWIDTH 28 0
BBX 19 45 5 -10
BITMAP
C00020
C00020
E00020
A00020
B00020
900020
980020
880020
8C0020
840020
860020
820020
830020
810020
818020
808020
80C020
804020
806020
802020
803020
801020
801820
800820
800820
800420
800420
800220
800220
800120
800120
8000A0
8000A0
800060
800060
000000
000000
002000
002000
002000
002000
004000
004000
00C000
008000
ENDCHAR
STARTCHAR 0146
ENCODING 326
SWIDTH 480 0
DWIDTH 24 0
BBX 15 35 4 -10
BITMAP
FFF8
8004
8002
8002
8002
8002
8002
8002
8002
8002
8002
8002
8002
8002
8002
8002
8002
8002
8002
8002
8002
8002
8002
8002
8002
0000
0000
0080
0080
0080
0080
0100
0100
0300
0200
ENDCHAR
STARTCHAR 0147
ENCODING 327
SWIDTH 560 0
DWIDTH 28 0
BBX 19 41 5 0
BITMAP
040400
020800
011000
00A000
004000
000000
C00020
C00020
E00020
A00020
B00020
900020
980020
880020
8C0020
840020
860020
820020
830020
810020
818020
808020
80C020
804020
806020
802020
803020
801020
801020
800820
800820
800420
800420
800220
800220
800120
800120
8000A0
8000A0
800060
800060
ENDCHAR
STARTCHAR 0148
ENCODING 328
SWIDTH 480 0
DWIDTH 24 0
BBX 15 35 4 0
BITMAP
2008
1010
0820
0440
0280
0380
0000
0000
0000
0000
FFF8
8004
8002
8002
8002
8002
8002
8002
8002
8002
8002
8002
8002
8002
8002
8002
8002
8002
8002
8002
8002
8002
8002
8002
8002
ENDCHAR
STARTCHAR 0149
ENCODING 329
SWIDTH 480 0
DWIDTH 24 0
BBX 15 35 4 0
BITMAP
8000
8000
8000
8000
8000
8000
8000
8000
0000
0000
FFF8
8004
8002
8002
8002
8002
8002
8002
8002
8002
8002
8002
8002
8002
8002
8002
8002
8002
8002
8002
8002
8002
8002
8002
8002
ENDCHAR
STARTCHAR 014A
ENCODING 330
SWIDTH 560 0
DWIDTH 28 0
BBX 19 42 5 -7
BITMAP
C00020
C00020
E00020
A00020
B00020
900020
980020
880020
8C0020
840020
860020
820020
830020
810020
818020
808020
80C020
804020
806020
802020
803020
801020
801020
800820
800820
800420
800420
800220
800220
800120
800120
8000A0
8000A0
800060
800060
000020
000020
000040
000040
0000C0
000080
000080
ENDCHAR
STARTCHAR 014B
ENCODING 331
SWIDTH 480 0
DWIDTH 24 0
BBX 15 32 4 -7
BITMAP
FFF8
8004
8002
8002
8002
8002
8002
8002
8002
8002
8002
8002
8002
8002
8002
8002
8002
8002
8002
8002
8002
8002
8002
8002
8002
0002
0002
0002
0004
0004
000C
0008
ENDCHAR
STARTCHAR 014C
ENCODING 332
SWIDTH 560 0
DWIDTH 28 0
BBX 18 40 5 0
BITMAP
0FFC00
000000
000000
000000
000000
3FFF00
400080
800040
800040
800040
800040
800040
800040
800040
800040
800040
800040
800040
800040
800040
800040
800040
800040
800040
800040
800040
800040
800040
800040
800040
800040
800040
800040
800040
800040
800040
800040
800040
400080
3FFF00
ENDCHAR
STARTCHAR 014D
ENCODING 333
SWIDTH 480 0
DWIDTH 24 0
BBX 15 32 4 0
BITMAP
1FF8
0000
0000
0000
0000
0000
0000
3FF8
4004
8002
8002
8002
8002
8002
8002
8002
8002
8002
8002
8002
8002
8002
8002
8002
8002
8002
8002
8002
8002
8002
4004
3FF8
ENDCHAR
STARTCHAR 014E
ENCODING 334
SWIDTH 560 0
DWIDTH 28 0
BBX 18 42 5 0
BITMAP
080400
080400
080400
0C0C00
07F800
000000
000000
3FFF00
400080
800040
800040
800040
800040
800040
800040
800040
800040
800040
800040
800040
800040
800040
800040
800040
800040
800040
800040
800040
800040
800040
800040
800040
800040
800040
800040
800040
800040
800040
800040
800040
400080
3FFF00
ENDCHAR
STARTCHAR 014F
ENCODING 335
SWIDTH 480 0
DWIDTH 24 0
BBX 15 35 4 0
BITMAP
1008
1008
1008
1008
0810
07E0
0000
0000
0000
0000
3FF8
4004
8002
8002
8002
8002
8002
8002
8002
8002
8002
8002
8002
8002
8002
8002
8002
8002
8002
8002
8002
8002
8002
4004
3FF8
ENDCHAR
STARTCHAR 0150
ENCODING 336
SWIDTH 560 0
DWIDTH 28 0
BBX 18 42 5 0
BITMAP
00C300
008600
010C00
021800
041000
000000
000000
3FFF00
400080
800040
800040
800040
800040
800040
800040
800040
800040
800040
800040
800040
800040
800040
800040
800040
800040
800040
800040
800040
800040
800040
800040
800040
800040
800040
800040
800040
800040
800040
800040
800040
400080
3FFF00
ENDCHAR
STARTCHAR 0151
ENCODING 337
SWIDTH 480 0
DWIDTH 24 0
BBX 15 35 4 0
BITMAP
00C6
0084
0108
0208
0410
0420
0000
0000
0000
0000
3FF8
4004
8002
8002
8002
8002
8002
8002
8002
8002
8002
8002
8002
8002
8002
8002
8002
8002
8002
8002
8002
8002
8002
4004
3FF8
ENDCHAR
STARTCHAR 0152
ENCODING 338
SWIDTH 820 0
DWIDTH 41 0
BBX 35 35 5 0
BITMAP
3FFFFFFFC0
4000400000
8000400000
8000400000
8000400000
8000400000
8000400000
8000400000
8000400000
8000400000
8000400000
8000400000
8000400000
8000400000
8000400000
8000400000
80007FFE00
8000400000
8000400000
8000400000
8000400000
8000400000
8000400000
8000400000
8000400000
8000400000
8000400000
8000400000
8000400000
8000400000
8000400000
8000400000
8000400000
4000400000
3FFFFFFFE0
ENDCHAR
STARTCHAR 0153
ENCODING 339
SWIDTH 740 0
DWIDTH 37 0
BBX 29 25 4 0
BITMAP
3FF8FFE0
40050010
80020008
80020008
80020008
80020008
80020008
80020008
80020008
80020008
8003FFF8
80020000
80020000
80020000
80020000
80020000
80020000
80020000
80020000
80020000
80020000
80020000
80020000
40050000
3FF8FFF8
ENDCHAR
STARTCHAR 0154
ENCODING 340
SWIDTH 560 0
DWIDTH 28 0
BBX 20 41 5 1
BITMAP
006000
00C000
018000
020000
000000
000000
FFFF00
800080
800040
800040
800040
800040
800040
800040
800040
800040
800040
800040
800040
800040
800040
800080
FFFF00
801000
800800
800800
800C00
800400
800400
800200
800200
800100
800100
800180
800080
800080
800040
800040
800060
800020
800030
ENDCHAR
STARTCHAR 0155
ENCODING 341
SWIDTH 300 0
DWIDTH 15 0
BBX 8 35 4 0
BITMAP
01
02
02
04
08
08
00
00
00
00
BF
C0
80
80
80
80
80
80
80
80
80
80
80
80
80
80
80
80
80
80
80
80
80
80
80
ENDCHAR
STARTCHAR 0156
ENCODING 342
SWIDTH 560 0
DWIDTH 28 0
BBX 20 45 5 -10
BITMAP
FFFF00
800080
800040
800040
800040
800040
800040
800040
800040
800040
800040
800040
800040
800040
800040
800080
FFFF00
800400
800400
800400
800200
800200
800200
800100
800100
800180
800080
800080
8000C0
800040
800040
800060
800020
800020
800030
000000
000000
004000
004000
004000
004000
008000
008000
018000
010000
ENDCHAR
STARTCHAR 0157
ENCODING 343
SWIDTH 300 0
DWIDTH 15 0
BBX 10 35 2 -10
BITMAP
2FC0
3000
2000
2000
2000
2000
2000
2000
2000
2000
2000
2000
2000
2000
2000
2000
2000
2000
2000
2000
2000
2000
2000
2000
2000
0000
0000
2000
2000
2000
2000
6000
4000
4000
C000
ENDCHAR
STARTCHAR 0158
ENCODING 344
SWIDTH 560 0
DWIDTH 28 0
BBX 20 41 5 1
BITMAP
080800
041000
026000
01C000
000000
000000
FFFF00
800080
800040
800040
800040
800040
800040
800040
800040
800040
800040
800040
800040
800040
800040
800080
FFFF00
800800
800C00
800400
800400
800200
800200
800200
800100
800100
800180
800080
800080
8000C0
800040
800060
800020
800020
800030
ENDCHAR
STARTCHAR 0159
ENCODING 345
SWIDTH 300 0
DWIDTH 15 0
BBX 12 35 3 0
BITMAP
4010
2020
3040
1880
0D00
0600
0000
0000
0000
0000
DFE0
E000
C000
C000
C000
C000
C000
C000
C000
C000
C000
C000
C000
C000
C000
C000
C000
C000
C000
C000
C000
C000
C000
C000
C000
ENDCHAR
STARTCHAR 015A
ENCODING 346
SWIDTH 520 0
DWIDTH 26 0
BBX 17 41 4 1
BITMAP
001000
002000
004000
008000
000000
000000
3FFF80
400000
800000
800000
800000
800000
800000
800000
800000
800000
400000
600000
100000
080000
060000
030000
018000
004000
002000
001000
000C00
000600
000300
000180
000080
000080
000080
000080
000080
000080
000080
000080
000080
000100
FFFE00
ENDCHAR
STARTCHAR 015B
ENCODING 347
SWIDTH 400 0
DWIDTH 20 0
BBX 14 35 3 0
BITMAP
0020
0040
0080
0180
0100
0200
0000
0000
0000
0000
3FFC
4000
8000
8000
8000
8000
8000
4000
2000
1800
0C00
0600
0180
00C0
0030
0018
0008
0004
0004
0004
0004
0004
0004
0008
FFF0
ENDCHAR
STARTCHAR 015C
ENCODING 348
SWIDTH 520 0
DWIDTH 26 0
BBX 17 41 4 1
BITMAP
01C000
032000
061000
080800
000000
000000
3FFF80
400000
800000
800000
800000
800000
800000
800000
800000
800000
400000
600000
100000
080000
060000
030000
018000
004000
002000
001000
000C00
000600
000300
000180
000080
000080
000080
000080
000080
000080
000080
000080
000080
000100
FFFE00
ENDCHAR
STARTCHAR 015D
ENCODING 349
SWIDTH 400 0
DWIDTH 20 0
BBX 14 35 3 0
BITMAP
0180
0280
0640
0420
0810
1010
0000
0000
0000
0000
3FF8
4000
8000
8000
8000
8000
8000
4000
2000
1800
0C00
0600
0180
00C0
0030
0018
0008
0004
0004
0004
0004
0004
0004
0008
FFF0
ENDCHAR
STARTCHAR 015E
ENCODING 350
SWIDTH 520 0
DWIDTH 26 0
BBX 17 45 4 -10
BITMAP
3FFF80
400000
800000
800000
800000
800000
800000
800000
800000
800000
400000
600000
100000
080000
060000
030000
018000
004000
002000
001000
000C00
000600
000300
000180
000080
000080
000080
000080
000080
000080
000080
000080
000080
000100
FFFE00
008000
010000
01F000
001800
000800
000800
000800
000800
001800
07E000
ENDCHAR
STARTCHAR 015F
ENCODING 351
SWIDTH 400 0
DWIDTH 20 0
BBX 14 35 3 -10
BITMAP
3FFC
4000
8000
8000
8000
8000
8000
4000
2000
1800
0C00
0600
0180
00C0
0030
0018
0008
0004
0004
0004
0004
0004
0004
0008
FFF0
0200
0200
07E0
0030
0010
0010
0010
0010
0020
1FC0
ENDCHAR
STARTCHAR 0160
ENCODING 352
SWIDTH 520 0
DWIDTH 26 0
BBX 17 41 4 1
BITMAP
080800
041000
022000
01C000
000000
000000
3FFF80
400000
800000
800000
800000
800000
800000
800000
800000
800000
400000
600000
100000
080000
060000
030000
018000
004000
002000
001000
000C00
000600
000300
000180
000080
000080
000080
000080
000080
000080
000080
000080
000080
000100
FFFE00
ENDCHAR
STARTCHAR 0161
ENCODING 353
SWIDTH 400 0
DWIDTH 20 0
BBX 14 35 3 0
BITMAP
2010
1020
1860
0840
0480
0300
0000
0000
0000
0000
3FF0
4000
8000
8000
8000
8000
8000
4000
2000
1800
0C00
0600
0180
00C0
0030
0018
0008
0004
0004
0004
0004
0004
0004
0008
FFF0
ENDCHAR
STARTCHAR 0162
ENCODING 354
SWIDTH 460 0
DWIDTH 23 0
BBX 20 45 1 -10
BITMAP
FFFFF0
002000
002000
002000
002000
002000
002000
002000
002000
002000
002000
002000
002000
002000
002000
002000
002000
002000
002000
002000
002000
002000
002000
002000
002000
002000
002000
002000
002000
002000
002000
002000
002000
002000
002000
000000
000000
002000
002000
002000
002000
004000
004000
00C000
008000
ENDCHAR
STARTCHAR 0163
ENCODING 355
SWIDTH 280 0
DWIDTH 14 0
BBX 9 41 4 -9
BITMAP
8000
8000
8000
8000
8000
8000
FF80
8000
8000
8000
8000
8000
8000
8000
8000
8000
8000
8000
8000
8000
8000
8000
8000
8000
8000
8000
8000
8000
8000
4000
3F80
0000
0000
0400
0400
0400
0C00
0800
1800
1000
3000
ENDCHAR
STARTCHAR 0164
ENCODING 356
SWIDTH 460 0
DWIDTH 23 0
BBX 21 41 1 1
BITMAP
020200
010400
008800
007000
000000
000000
FFFFF8
002000
002000
002000
002000
002000
002000
002000
002000
002000
002000
002000
002000
002000
002000
002000
002000
002000
002000
002000
002000
002000
002000
002000
002000
002000
002000
002000
002000
002000
002000
002000
002000
002000
002000
ENDCHAR
STARTCHAR 0165
ENCODING 357
SWIDTH 280 0
DWIDTH 14 0
BBX 8 35 4 0
BITMAP
06
06
06
04
84
84
84
84
80
80
FF
80
80
80
80
80
80
80
80
80
80
80
80
80
80
80
80
80
80
80
80
80
80
40
3F
ENDCHAR
STARTCHAR 0166
ENCODING 358
SWIDTH 460 0
DWIDTH 23 0
BBX 21 35 1 0
BITMAP
FFFFF8
002000
002000
002000
002000
002000
002000
002000
002000
002000
002000
002000
002000
002000
002000
002000
002000
002000
002000
002000
3FFFE0
002000
002000
002000
002000
002000
002000
002000
002000
002000
002000
002000
002000
002000
002000
ENDCHAR
STARTCHAR 0167
ENCODING 359
SWIDTH 280 0
DWIDTH 14 0
BBX 11 31 1 1
BITMAP
1000
1000
1000
1000
1000
1000
1FE0
1000
1000
1000
1000
1000
1000
1000
1000
1000
FFE0
1000
1000
1000
1000
1000
1000
1000
1000
1000
1000
1000
1000
0800
07E0
ENDCHAR
STARTCHAR 0168
ENCODING 360
SWIDTH 560 0
DWIDTH 28 0
BBX 18 41 5 0
BITMAP
1E0100
230100
408100
406300
401E00
000000
000000
8001C0
8001C0
8001C0
8001C0
8001C0
8001C0
8001C0
8001C0
8001C0
8001C0
8001C0
8001C0
8001C0
8001C0
8001C0
8001C0
8001C0
8001C0
8001C0
8001C0
8001C0
8001C0
8001C0
8001C0
8001C0
8001C0
8001C0
8001C0
8001C0
8001C0
8001C0
8001C0
400380
3FFF00
ENDCHAR
STARTCHAR 0169
ENCODING 361
SWIDTH 480 0
DWIDTH 24 0
BBX 15 35 4 0
BITMAP
3802
4402
C202
8102
8082
8044
8038
0000
0000
0000
8002
8002
8002
8002
8002
8002
8002
8002
8002
8002
8002
8002
8002
8002
8002
8002
8002
8002
8002
8002
8002
8002
8002
4002
3FFE
ENDCHAR
STARTCHAR 016A
ENCODING 362
SWIDTH 560 0
DWIDTH 28 0
BBX 18 40 5 0
BITMAP
0FFC00
000000
000000
000000
000000
800040
800040
800040
800040
800040
800040
800040
800040
800040
800040
800040
800040
800040
800040
800040
800040
800040
800040
800040
800040
800040
800040
800040
800040
800040
800040
800040
800040
800040
800040
800040
800040
800040
400080
3FFF00
ENDCHAR
STARTCHAR 016B
ENCODING 363
SWIDTH 480 0
DWIDTH 24 0
BBX 15 32 4 0
BITMAP
1FF8
0000
0000
0000
0000
0000
0000
8002
8002
8002
8002
8002
8002
8002
8002
8002
8002
8002
8002
8002
8002
8002
8002
8002
8002
8002
8002
8002
8002
8002
4002
3FFE
ENDCHAR
STARTCHAR 016C
ENCODING 364
SWIDTH 560 0
DWIDTH 28 0
BBX 18 42 5 0
BITMAP
080400
080400
080400
0C0C00
07F800
000000
000000
800040
800040
800040
800040
800040
800040
800040
800040
800040
800040
800040
800040
800040
800040
800040
800040
800040
800040
800040
800040
800040
800040
800040
800040
800040
800040
800040
800040
800040
800040
800040
800040
800040
400080
3FFF00
ENDCHAR
STARTCHAR 016D
ENCODING 365
SWIDTH 480 0
DWIDTH 24 0
BBX 15 35 4 0
BITMAP
1008
1008
1008
1008
0810
07E0
0000
0000
0000
0000
8002
8002
8002
8002
8002
8002
8002
8002
8002
8002
8002
8002
8002
8002
8002
8002
8002
8002
8002
8002
8002
8002
8002
4002
3FFE
ENDCHAR
STARTCHAR 016E
ENCODING 366
SWIDTH 560 0
DWIDTH 28 0
BBX 18 42 5 0
BITMAP
03F800
0C0C00
080400
080400
0C0C00
07F800
000000
800040
800040
800040
800040
800040
800040
800040
800040
800040
800040
800040
800040
800040
800040
800040
800040
800040
800040
800040
800040
800040
800040
800040
800040
800040
800040
800040
800040
800040
800040
800040
800040
800040
400080
3FFF00
ENDCHAR
STARTCHAR 016F
ENCODING 367
SWIDTH 480 0
DWIDTH 24 0
BBX 15 36 4 0
BITMAP
0FF0
1818
1008
1008
1008
1008
1818
0FF0
0000
0000
0000
8002
8002
8002
8002
8002
8002
8002
8002
8002
8002
8002
8002
8002
8002
8002
8002
8002
8002
8002
8002
8002
8002
8002
4002
3FFE
ENDCHAR
STARTCHAR 0170
ENCODING 368
SWIDTH 560 0
DWIDTH 28 0
BBX 18 42 5 0
BITMAP
006100
00C200
018400
020800
041000
000000
000000
800040
800040
800040
800040
800040
800040
800040
800040
800040
800040
800040
800040
800040
800040
800040
800040
800040
800040
800040
800040
800040
800040
800040
800040
800040
800040
800040
800040
800040
800040
800040
800040
800040
400080
3FFF00
ENDCHAR
STARTCHAR 0171
ENCODING 369
SWIDTH 480 0
DWIDTH 24 0
BBX 15 35 4 0
BITMAP
0084
0104
0308
0210
0410
0820
0000
0000
0000
0000
8002
8002
8002
8002
8002
8002
8002
8002
8002
8002
8002
8002
8002
8002
8002
8002
8002
8002
8002
8002
8002
8002
8002
4002
3FFE
ENDCHAR
STARTCHAR 0172
ENCODING 370
SWIDTH 560 0
DWIDTH 28 0
BBX 18 44 5 -10
BITMAP
800040
800040
800040
800040
800040
800040
800040
800040
800040
800040
800040
800040
800040
800040
800040
800040
800040
800040
800040
800040
800040
800040
800040
800040
800040
800040
800040
800040
800040
800040
800040
800040
800040
400080
3FFF00
001000
00E000
010000
020000
020000
020000
020000
030000
01F800
ENDCHAR
STARTCHAR 0173
ENCODING 371
SWIDTH 480 0
DWIDTH 24 0
BBX 15 35 4 -10
BITMAP
8002
8002
8002
8002
8002
8002
8002
8002
8002
8002
8002
8002
8002
8002
8002
8002
8002
8002
8002
8002
8002
8002
8002
4002
3FFE
0004
0018
0020
0060
0040
0040
0040
0040
0060
003E
ENDCHAR
STARTCHAR 0174
ENCODING 372
SWIDTH 780 0
DWIDTH 39 0
BBX 35 41 2 1
BITMAP
0000E00000
0001100000
0002080000
0004040000
0000000000
0000000000
8000400020
C000600020
4000A00040
4000A00040
4000A00040
6000A00040
2001300080
2001100080
2001100080
2001100080
1001100100
1002080100
1002080100
1002080100
0802080200
08040C0200
0804040200
0804040200
0404040400
0404040400
0408060400
0408020400
0208020800
0208020800
0210020800
0210010800
0310011000
0110011000
0110011000
0120019000
01A000A000
00A000A000
00A000A000
00C000A000
00C000C000
ENDCHAR
STARTCHAR 0175
ENCODING 373
SWIDTH 620 0
DWIDTH 31 0
BBX 27 35 2 0
BITMAP
00040000
000A0000
00110000
00208000
0060C000
00404000
00000000
00000000
00000000
00000000
80040020
C00A0060
400A0040
400A0040
400A0040
60120080
20110080
20110080
20110080
10110100
10208100
10208100
10208100
08208200
08408200
08404200
08404400
04404400
04404400
04802400
06802800
02802800
02802800
03002800
03001000
ENDCHAR
STARTCHAR 0176
ENCODING 374
SWIDTH 520 0
DWIDTH 26 0
BBX 25 41 1 1
BITMAP
001C0000
00260000
00410000
00808000
00000000
00000000
80000080
40000100
60000300
20000200
30000400
18000C00
08000800
0C001800
04001000
02002000
03006000
01004000
00808000
00C08000
00410000
00630000
00220000
00140000
001C0000
00080000
00080000
00080000
00080000
00080000
00080000
00080000
00080000
00080000
00080000
00080000
00080000
00080000
00080000
00080000
00080000
ENDCHAR
STARTCHAR 0177
ENCODING 375
SWIDTH 400 0
DWIDTH 20 0
BBX 18 45 1 -10
BITMAP
004000
00A000
011000
020800
060C00
040400
000000
000000
000000
000000
C00040
4000C0
400080
600080
200080
200100
300100
100100
100200
180200
080200
080400
0C0400
040400
040800
060800
020800
021000
031000
011000
011000
01A000
00A000
00A000
004000
004000
004000
008000
008000
008000
010000
010000
010000
020000
020000
ENDCHAR
STARTCHAR 0178
ENCODING 376
SWIDTH 520 0
DWIDTH 26 0
BBX 24 39 1 0
BITMAP
004200
000000
000000
000000
800001
C00003
600002
200004
30000C
100008
080018
0C0010
040030
020020
030040
0100C0
018080
008180
004100
006200
002200
001400
001C00
000800
000800
000800
000800
000800
000800
000800
000800
000800
000800
000800
000800
000800
000800
000800
000800
ENDCHAR
STARTCHAR 0179
ENCODING 377
SWIDTH 500 0
DWIDTH 25 0
BBX 20 41 3 1
BITMAP
000C00
001800
002000
004000
000000
000000
FFFFF0
000010
000020
000020
000040
000080
000080
000100
000100
000200
000200
000400
000800
000800
001000
001000
002000
002000
004000
008000
008000
010000
010000
020000
060000
040000
0C0000
080000
100000
100000
200000
600000
400000
C00000
FFFFF0
ENDCHAR
STARTCHAR 017A
ENCODING 378
SWIDTH 400 0
DWIDTH 20 0
BBX 16 35 2 0
BITMAP
0018
0030
0020
0040
0080
0100
0000
0000
0000
0000
FFFF
0001
0002
0004
0004
0008
0010
0010
0020
0040
0040
0080
0180
0100
0200
0200
0400
0800
0800
1000
2000
2000
4000
C000
FFFF
ENDCHAR
STARTCHAR 017B
ENCODING 379
SWIDTH 500 0
DWIDTH 25 0
BBX 20 39 3 0
BITMAP
004000
000000
000000
000000
FFFFF0
000010
000020
000020
000040
000080
000080
000100
000100
000200
000200
000400
000800
000800
001000
001000
002000
002000
004000
008000
008000
010000
010000
020000
060000
040000
0C0000
080000
100000
100000
200000
600000
400000
C00000
FFFFF0
ENDCHAR
STARTCHAR 017C
ENCODING 380
SWIDTH 400 0
DWIDTH 20 0
BBX 16 31 2 0
BITMAP
0100
0100
0000
0000
0000
0000
FFFF
0001
0002
0004
0004
0008
0010
0010
0020
0040
0040
0080
0180
0100
0200
0600
0400
0800
0800
1000
2000
2000
4000
C000
FFFF
ENDCHAR
STARTCHAR 017D
ENCODING 381
SWIDTH 500 0
DWIDTH 25 0
BBX 20 41 3 1
BITMAP
020300
010400
00C800
007000
000000
000000
FFFFF0
000010
000020
000020
000040
000080
000080
000100
000100
000200
000200
000400
000800
000800
001000
001000
002000
002000
004000
008000
008000
010000
010000
020000
020000
040000
0C0000
080000
100000
100000
200000
600000
400000
C00000
FFFFF0
ENDCHAR
STARTCHAR 017E
ENCODING 382
SWIDTH 400 0
DWIDTH 20 0
BBX 16 35 2 0
BITMAP
1008
0818
0410
0220
0340
0180
0000
0000
0000
0000
FFFF
0003
0002
0004
000C
0008
0010
0010
0020
0040
0040
0080
0180
0100
0200
0600
0400
0800
1800
1000
2000
2000
4000
C000
FFFF
ENDCHAR
STARTCHAR 0192
ENCODING 402
SWIDTH 280 0
DWIDTH 14 0
BBX 15 45 -2 -10
BITMAP
007E
0080
0100
0100
0100
0100
0100
0100
0100
0100
01FE
0100
0100
0100
0100
0100
0100
0100
0100
0100
0100
0100
0100
0100
0100
0100
0100
0100
0100
0100
0100
0100
0100
0100
0100
0100
0100
0100
0100
0100
0100
0100
0100
0200
FC00
ENDCHAR
STARTCHAR 0218
ENCODING 536
SWIDTH 460 0
DWIDTH 23 0
BBX 15 35 4 0
BITMAP
0020
0040
00C0
0080
0100
0200
0000
0000
0000
0000
FFF8
0004
0002
0002
0002
0002
0002
0002
0002
0002
3FFE
4002
8002
8002
8002
8002
8002
8002
8002
8002
8002
8002
8002
4002
3FFE
ENDCHAR
STARTCHAR 0219
ENCODING 537
SWIDTH 520 0
DWIDTH 26 0
BBX 17 45 4 -10
BITMAP
3FFF80
400000
800000
800000
800000
800000
800000
800000
800000
800000
400000
600000
100000
080000
060000
030000
018000
004000
002000
001000
000C00
000600
000300
000180
000080
000080
000080
000080
000080
000080
000080
000080
000080
000100
FFFE00
000000
000000
008000
008000
008000
008000
010000
010000
030000
020000
ENDCHAR
STARTCHAR 02C6
ENCODING 710
SWIDTH 380 0
DWIDTH 19 0
BBX 9 6 5 28
BITMAP
0800
1400
2200
4100
C180
8080
ENDCHAR
STARTCHAR 02C7
ENCODING 711
SWIDTH 380 0
DWIDTH 19 0
BBX 11 6 4 28
BITMAP
8020
4040
2080
1100
0A00
0E00
ENDCHAR
STARTCHAR 02D8
ENCODING 728
SWIDTH 360 0
DWIDTH 18 0
BBX 10 6 4 29
BITMAP
8040
8040
8040
8040
4080
3F00
ENDCHAR
STARTCHAR 02D9
ENCODING 729
SWIDTH 180 0
DWIDTH 9 0
BBX 1 2 4 29
BITMAP
80
80
ENDCHAR
STARTCHAR 02DA
ENCODING 730
SWIDTH 360 0
DWIDTH 18 0
BBX 10 8 4 28
BITMAP
7F80
C0C0
8040
8040
8040
8040
C0C0
7F80
ENDCHAR
STARTCHAR 02DB
ENCODING 731
SWIDTH 300 0
DWIDTH 15 0
BBX 7 10 4 -10
BITMAP
04
18
60
C0
80
80
80
80
C0
7E
ENDCHAR
STARTCHAR 02DC
ENCODING 732
SWIDTH 460 0
DWIDTH 23 0
BBX 15 7 4 28
BITMAP
3802
4402
C202
8102
8082
8044
8038
ENDCHAR
STARTCHAR 02DD
ENCODING 733
SWIDTH 400 0
DWIDTH 20 0
BBX 10 6 5 28
BITMAP
1840
10C0
2080
4100
8200
8400
ENDCHAR
STARTCHAR 0394
ENCODING 916
SWIDTH 500 0
DWIDTH 25 0
BBX 23 35 1 0
BITMAP
001800
002800
002800
002C00
004400
004400
004400
00C600
008200
008200
018300
010100
010100
010180
020080
020080
020080
0600C0
040040
040040
0C0060
080020
080020
080030
100010
100010
100010
300018
200008
200008
60000C
400004
400004
C00006
FFFFFE
ENDCHAR
STARTCHAR 03A9
ENCODING 937
SWIDTH 520 0
DWIDTH 26 0
BBX 18 35 4 0
BITMAP
3FFF00
400080
800040
800040
800040
800040
800040
800040
800040
800040
800040
800040
800040
800040
800040
800040
800040
800040
800040
800040
800040
800040
800040
400080
3E1F00
021000
021000
021000
021000
021000
021000
021000
021000
021000
FE1FC0
ENDCHAR
STARTCHAR 03C0
ENCODING 960
SWIDTH 480 0
DWIDTH 24 0
BBX 19 26 2 0
BITMAP
3C0020
4B0020
88C020
882060
8818C0
880780
080100
080100
080100
080100
080100
080100
080100
080100
080100
080100
080100
080100
080100
080100
080100
080100
080100
080100
080100
080100
ENDCHAR
STARTCHAR 2013
ENCODING 8211
SWIDTH 440 0
DWIDTH 22 0
BBX 17 1 3 14
BITMAP
FFFF80
ENDCHAR
STARTCHAR 2014
ENCODING 8212
SWIDTH 720 0
DWIDTH 36 0
BBX 31 1 3 14
BITMAP
FFFFFFFE
ENDCHAR
STARTCHAR 2018
ENCODING 8216
SWIDTH 180 0
DWIDTH 9 0
BBX 3 9 4 28
BITMAP
20
40
40
40
80
80
80
80
80
ENDCHAR
STARTCHAR 2019
ENCODING 8217
SWIDTH 180 0
DWIDTH 9 0
BBX 3 9 2 26
BITMAP
20
20
20
20
20
40
40
80
80
ENDCHAR
STARTCHAR 201A
ENCODING 8218
SWIDTH 180 0
DWIDTH 9 0
BBX 3 9 2 -7
BITMAP
20
20
20
20
20
40
40
40
80
ENDCHAR
STARTCHAR 201C
ENCODING 8220
SWIDTH 300 0
DWIDTH 15 0
BBX 9 9 4 28
BITMAP
2080
2100
4100
4100
C200
8200
8200
8200
8200
ENDCHAR
STARTCHAR 201D
ENCODING 8221
SWIDTH 300 0
DWIDTH 15 0
BBX 9 9 2 26
BITMAP
2080
2080
2080
2080
2180
4100
4100
8200
8200
ENDCHAR
STARTCHAR 201E
ENCODING 8222
SWIDTH 300 0
DWIDTH 15 0
BBX 9 9 2 -7
BITMAP
2080
2080
2080
2080
2080
4100
4100
4200
8200
ENDCHAR
STARTCHAR 2020
ENCODING 8224
SWIDTH 460 0
DWIDTH 23 0
BBX 21 35 1 0
BITMAP
002000
002000
002000
002000
002000
002000
002000
002000
002000
002000
FFFFF8
002000
002000
002000
002000
002000
002000
002000
002000
002000
002000
002000
002000
002000
002000
002000
002000
002000
002000
002000
002000
002000
002000
002000
002000
ENDCHAR
STARTCHAR 2021
ENCODING 8225
SWIDTH 500 0
DWIDTH 25 0
BBX 21 35 2 0
BITMAP
002000
002000
002000
002000
002000
002000
002000
002000
002000
002000
FFFFF8
002000
002000
002000
002000
002000
002000
002000
002000
002000
002000
002000
FFFFF8
002000
002000
002000
002000
002000
002000
002000
002000
002000
002000
002000
002000
ENDCHAR
STARTCHAR 2022
ENCODING 8226
SWIDTH 420 0
DWIDTH 21 0
BBX 13 23 4 1
BITMAP
1FE0
7FF0
FFF8
FFF8
FFF8
FFF8
FFF8
FFF8
FFF8
FFF8
FFF8
FFF8
FFF8
FFF8
FFF8
FFF8
FFF8
FFF8
FFF8
FFF8
FFF8
7FF0
3FE0
ENDCHAR
STARTCHAR 2026
ENCODING 8230
SWIDTH 600 0
DWIDTH 30 0
BBX 21 2 4 0
BITMAP
802008
802008
ENDCHAR
STARTCHAR 2030
ENCODING 8240
SWIDTH 800 0
DWIDTH 40 0
BBX 34 35 3 0
BITMAP
3F00300000
4080200000
8040600000
8040400000
8040800000
8040800000
8041000000
8041000000
8042000000
8042000000
8044000000
8044000000
8048000000
8048000000
4090000000
3F30000000
0020000000
0060000000
0040000000
0087C03F00
0088204080
0110108040
0110108040
0210108040
0210108040
0410108040
0410108040
0810108040
0810108040
1010108040
3010108040
2010108040
6010108040
4008204080
8007C03F00
ENDCHAR
STARTCHAR 2039
ENCODING 8249
SWIDTH 340 0
DWIDTH 17 0
BBX 13 20 2 5
BITMAP
0008
0010
0060
00C0
0180
0200
0C00
1800
3000
C000
C000
6000
3800
0C00
0600
0300
00C0
0060
0030
0018
ENDCHAR
STARTCHAR 203A
ENCODING 8250
SWIDTH 340 0
DWIDTH 17 0
BBX 13 20 2 5
BITMAP
8000
C000
3000
1800
0C00
0700
0180
00C0
0060
0018
0018
0030
0060
0180
0300
0600
0800
3000
6000
C000
ENDCHAR
STARTCHAR 2044
ENCODING 8260
SWIDTH 400 0
DWIDTH 20 0
BBX 20 35 0 0
BITMAP
000030
000020
000060
000040
0000C0
000080
000180
000100
000300
000600
000400
000C00
000800
001800
001000
003000
002000
006000
004000
00C000
008000
018000
010000
030000
020000
060000
0C0000
080000
180000
100000
300000
200000
600000
400000
C00000
ENDCHAR
STARTCHAR 20AC
ENCODING 8364
SWIDTH 480 0
DWIDTH 24 0
BBX 20 35 3 0
BITMAP
0FFFF0
100000
200000
200000
200000
200000
200000
200000
200000
200000
200000
200000
200000
FFFF00
200000
200000
200000
200000
200000
200000
FFFF00
200000
200000
200000
200000
200000
200000
200000
200000
200000
200000
200000
200000
100000
0FFFF0
ENDCHAR
STARTCHAR 2122
ENCODING 8482
SWIDTH 520 0
DWIDTH 26 0
BBX 20 16 3 23
BITMAP
800000
800000
800000
F9FFE0
810410
810410
810410
810410
810410
810410
810410
810410
810410
810410
810410
790410
ENDCHAR
STARTCHAR 2202
ENCODING 8706
SWIDTH 520 0
DWIDTH 26 0
BBX 16 35 5 0
BITMAP
4000
2000
1000
1800
0C00
0600
0300
0180
0080
0040
0020
0010
0008
0004
0002
0003
3FFF
4001
8001
8001
8001
8001
8001
8001
8001
8001
8001
8001
8001
8001
8001
8001
8001
4002
3FFC
ENDCHAR
STARTCHAR 220F
ENCODING 8719
SWIDTH 560 0
DWIDTH 28 0
BBX 18 35 5 0
BITMAP
FFFFC0
800040
800040
800040
800040
800040
800040
800040
800040
800040
800040
800040
800040
800040
800040
800040
800040
800040
800040
800040
800040
800040
800040
800040
800040
800040
800040
800040
800040
800040
800040
800040
800040
800040
800040
ENDCHAR
STARTCHAR 2211
ENCODING 8721
SWIDTH 500 0
DWIDTH 25 0
BBX 20 35 3 0
BITMAP
FFFFF0
C00000
400000
600000
200000
100000
100000
080000
0C0000
040000
060000
020000
010000
018000
008000
00C000
004000
002000
004000
00C000
008000
018000
010000
020000
020000
040000
0C0000
080000
100000
100000
200000
600000
400000
C00000
FFFFF0
ENDCHAR
STARTCHAR 221A
ENCODING 8730
SWIDTH 660 0
DWIDTH 33 0
BBX 28 35 2 0
BITMAP
00000010
00000030
00000020
00000060
00000040
000000C0
00000080
00000180
00000100
00000300
FFC00200
00400600
00400400
00400C00
00400800
00401000
00401000
00402000
00402000
00404000
00404000
00408000
00408000
00410000
00410000
00420000
00420000
00440000
00440000
00480000
00480000
00500000
00600000
00600000
00400000
ENDCHAR
STARTCHAR 221E
ENCODING 8734
SWIDTH 740 0
DWIDTH 37 0
BBX 33 16 2 10
BITMAP
3FFE3FFE00
4001400100
8000800080
8000800080
8000800080
8000800080
8000800080
8000800080
8000800080
8000800080
8000800080
8000800080
8000800080
8000800080
4001600100
3FFE3FFE00
ENDCHAR
STARTCHAR 222B
ENCODING 8747
SWIDTH 240 0
DWIDTH 12 0
BBX 15 45 -2 -10
BITMAP
007E
0080
0100
0100
0100
0100
0100
0100
0100
0100
0100
0100
0100
0100
0100
0100
0100
0100
0100
0100
0100
0100
0100
0100
0100
0100
0100
0100
0100
0100
0100
0100
0100
0100
0100
0100
0100
0100
0100
0100
0100
0100
0100
0200
FC00
ENDCHAR
STARTCHAR 2248
ENCODING 8776
SWIDTH 460 0
DWIDTH 23 0
BBX 19 16 2 7
BITMAP
3E0020
410020
C0C020
802020
801840
800780
000000
000000
000000
3C0020
630020
408020
804020
802060
801840
800780
ENDCHAR
STARTCHAR 2260
ENCODING 8800
SWIDTH 440 0
DWIDTH 22 0
BBX 17 23 3 4
BITMAP
000100
000200
000600
000400
000800
000800
FFFF80
003000
002000
004000
004000
008000
018000
010000
020000
020000
FFFF80
0C0000
080000
100000
100000
200000
600000
ENDCHAR
STARTCHAR 2264
ENCODING 8804
SWIDTH 440 0
DWIDTH 22 0
BBX 17 26 3 1
BITMAP
000080
000300
000C00
001000
006000
018000
060000
0C0000
300000
C00000
C00000
700000
180000
060000
018000
00C000
003000
000C00
000600
000180
000000
000000
000000
000000
000000
FFFF80
ENDCHAR
STARTCHAR 2265
ENCODING 8805
SWIDTH 440 0
DWIDTH 22 0
BBX 17 26 3 1
BITMAP
800000
600000
180000
060000
030000
00C000
003000
001800
000600
000180
000180
000700
000C00
003000
00C000
018000
060000
180000
300000
C00000
000000
000000
000000
000000
000000
FFFF80
ENDCHAR
STARTCHAR 25CA
ENCODING 9674
SWIDTH 500 0
DWIDTH 25 0
BBX 20 45 3 -10
BITMAP
006000
007000
009000
009800
019800
010800
010C00
020400
020600
060600
040200
040300
080100
080100
180180
100080
1000C0
200040
200040
600060
400020
C00030
800010
C00030
400020
600060
200040
200040
300080
100080
180180
080100
080100
0C0200
040200
060600
060400
020400
030800
010800
019800
019000
009000
00E000
006000
ENDCHAR
STARTCHAR F6C3
ENCODING 63171
SWIDTH 180 0
DWIDTH 9 0
BBX 3 8 2 -10
BITMAP
20
20
20
20
40
40
C0
80
ENDCHAR
STARTCHAR F6C9
ENCODING 63177
SWIDTH 480 0
DWIDTH 24 0
BBX 5 4 12 37
BITMAP
18
20
40
80
ENDCHAR
STARTCHAR F6CA
ENCODING 63178
SWIDTH 380 0
DWIDTH 19 0
BBX 9 4 5 37
BITMAP
8080
4100
2200
1C00
ENDCHAR
STARTCHAR F6CB
ENCODING 63179
SWIDTH 300 0
DWIDTH 15 0
BBX 7 1 4 38
BITMAP
82
ENDCHAR
STARTCHAR F6CE
ENCODING 63182
SWIDTH 280 0
DWIDTH 14 0
BBX 5 4 5 37
BITMAP
80
40
20
18
ENDCHAR
STARTCHAR F6CF
ENCODING 63183
SWIDTH 400 0
DWIDTH 20 0
BBX 11 5 4 37
BITMAP
0C20
1840
3080
4100
8200
ENDCHAR
STARTCHAR F6D0
ENCODING 63184
SWIDTH 360 0
DWIDTH 18 0
BBX 10 1 4 39
BITMAP
FFC0
ENDCHAR
STARTCHAR FB01
ENCODING 64257
SWIDTH 440 0
DWIDTH 22 0
BBX 14 35 4 0
BITMAP
3FFC
4000
8000
8000
8000
8000
8000
8000
8000
8000
FFFC
8004
8004
8004
8004
8004
8004
8004
8004
8004
8004
8004
8004
8004
8004
8004
8004
8004
8004
8004
8004
8004
8004
8004
8004
ENDCHAR
STARTCHAR FB02
ENCODING 64258
SWIDTH 440 0
DWIDTH 22 0
BBX 14 35 4 0
BITMAP
3F04
4004
8004
8004
8004
8004
8004
8004
8004
8004
FFFC
8004
8004
8004
8004
8004
8004
8004
8004
8004
8004
8004
8004
8004
8004
8004
8004
8004
8004
8004
8004
8004
8004
8004
8004
ENDCHAR
ENDFONT
